<svg id="Layer_1" data-name="Layer 1" xmlns="http://www.w3.org/2000/svg" viewBox="0 0 1367 609"><defs><style>.cls-1{fill:#424242;}.cls-2{fill:#fff;opacity:0.1;isolation:isolate;}</style></defs><title>socialArtboard 1</title><g id="Group_849" data-name="Group 849"><rect id="Rectangle_930" data-name="Rectangle 930" class="cls-1" x="0.5" width="1366" height="609"/><g id="Group_3353" data-name="Group 3353"><g id="Group_3351" data-name="Group 3351"><path id="Subtraction_1" data-name="Subtraction 1" class="cls-2" d="M1,729.76H1l-.46-.26L0,729.19V727l.3.18.7.42v2.14Zm1365-10.37h0V682q.15-13.2.29-26.38c0-.71,0-1.43-.1-2.26v-.06c0-.4-.06-.81-.09-1.28l0,0,0,0V649.4l.06,0h0l.22.11c0-.48,0-.92.07-1.32.05-1,.1-1.84.08-2.68,0-5.79-.1-11.68-.15-17.38v0c-.12-13-.25-26.35-.28-39.56a5.58,5.58,0,0,0-3.23-5.5c-11.87-6.95-23.9-14.09-35.54-21l0,0-1-.61L1314,554.22c-.75-.45-1.5-.86-2.45-1.38l0,0-1.3-.72c0,.49-.09.89-.13,1.24a10,10,0,0,0-.11,1.45c0,5.59.1,11.26.15,16.6.11,11.78.22,24,.29,36.11h-2.21c.08-11.33.22-22.85.35-34v-1.1c.07-5.45.14-11.08.2-16.62,0-.7,0-1.39-.12-2.2h0c0-.4-.07-.85-.1-1.33-.44.22-.83.4-1.18.56h0a17.38,17.38,0,0,0-1.67.84l-15.33,9.05h0c-11.47,6.78-23.33,13.78-35,20.62a4.82,4.82,0,0,0-2,2,4.71,4.71,0,0,0-.54,2.78c0,5.76-.1,12.1-.18,19.39h-2c-.06-7-.09-13.11-.11-18.84a5.58,5.58,0,0,0-3.12-5.55c-11.71-6.83-23.56-13.87-35-20.67l-.29-.17-13.73-8.15c-.65-.39-1.32-.73-2.17-1.16-.43-.21-1-.48-1.54-.79.12,13.64.24,27.06.37,40.36l0,5.08.09,9.89h-2.24c.1-12.3.25-24.65.39-36.59l0-1.26c0-4.4.1-8.95.16-13.43,0-.68,0-1.37,0-2.18v-.11c0-.49,0-1-.05-1.69l-1.37.68h0c-.78.38-1.4.68-2,1l-14,8.26-.14.08c-11.46,6.76-23.32,13.76-35,20.56a5.87,5.87,0,0,0-3.43,5.8c0,5.67-.07,11.83-.14,18.84h-2l-.11-11.66-.1-10.65c-5.31-3.73-19.75-12.35-30.5-18.6-11.58-6.73-23.88-13.61-25.24-13.81a9.5,9.5,0,0,0-.15,1.07q0,4.62.08,9.23c.13,14.54.27,29.58.37,44.42h-2.22c.24-22.12.4-37.64.56-51.91,0-.64,0-1.27-.07-2.06,0-.41,0-.85-.08-1.35-.73.27-1.46.57-2.16.91L1059,562.87l0,0c-11.38,6.72-23.15,13.67-34.76,20.45-1.93,1.12-2.31,2.52-2.33,4.55-.06,6-.12,12.26-.2,19.61h-2c-.07-7.22-.14-14.73-.21-22.33-4.84-3.34-18.62-11.6-30.14-18.3-10.73-6.25-23.88-13.69-25.64-14.12.16,17.74.33,36.16.5,54.75H962c.08-11.37.22-22.93.35-34.11v-.56c.07-5.56.14-11.3.2-17,0-.7,0-1.38-.1-2.17v0c0-.4-.07-.85-.1-1.34l-1,.47c-.63.29-1.26.6-1.86.95l-21.94,13v.2c-9.28,5.49-18.83,11.1-28.39,16.69a4.57,4.57,0,0,0-1.88,1.89,4.49,4.49,0,0,0-.47,2.62c0,5.81-.12,12.15-.2,19.38h-2.37c0-7.21-.08-13.41-.1-19a5.6,5.6,0,0,0-3.23-5.5c-12.25-7.16-24.63-14.51-36.6-21.62l-1.29-.76-10.85-6.44c-.76-.45-1.53-.88-2.51-1.42h0l-.67-.37-.1-.06-.14-.06c0,.31-.06.6-.09.85v.09a13.14,13.14,0,0,0-.12,1.54c0,5.87.1,11.73.15,17.19.11,11.64.23,23.68.29,35.53h-2.58c.08-11.37.22-22.92.35-34.1v-.52c.07-6.1.13-11.6.2-17.09,0-.7,0-1.4-.12-2.21h0c0-.34-.06-.73-.08-1.15l-.6.28-.1,0h0a20,20,0,0,0-1.8.91c-5.44,3.2-11.12,6.56-16.13,9.52l-.16.1c-11.16,6.59-22.7,13.41-34.09,20.06a4.9,4.9,0,0,0-2,2,4.8,4.8,0,0,0-.55,2.78c0,5.84-.1,12-.18,19.39h-2.37c0-7-.08-13.18-.1-18.85a5.57,5.57,0,0,0-3.12-5.54c-11.78-6.88-23.68-13.94-35.2-20.77l-.51-.3-13.34-7.92c-.71-.42-1.44-.8-2.38-1.26l-.21-.11-.75-.39q.13,16,.29,31.68l.07,8.28q.08,7.62.14,15.18h-2.62c.1-12.28.25-24.72.4-36.74,0-4.24.11-9.5.17-14.53,0-.7,0-1.43,0-2.27,0-.47,0-.94-.05-1.46v-.07l-.87.43h0c-.76.37-1.36.67-1.93,1l-.4.23-13.3,7.85-.55.32-.05,0c-11.48,6.77-23.35,13.77-35.06,20.58a5.87,5.87,0,0,0-3.43,5.8c0,5.75-.07,11.91-.14,18.84H673.3l-.06-6.36q-.07-7.46-.14-14.92a3.84,3.84,0,0,0-.92-1.66c-1.51-1-3.66-2.4-6.58-4.22L652,572.27v-.18c-14.1-8.36-31.2-18.07-34.25-19.2a6.41,6.41,0,0,0-.13,1c.18,17.94.33,36,.44,53.64h-2.6c.11-11.5.25-23.2.38-34.5v-.36l0-2.41c.06-4.82.12-9.76.17-14.63,0-.64,0-1.26-.07-2.05h0v0c0-.35,0-.74-.07-1.17a16.63,16.63,0,0,0-1.79.77L598,562.59c-11.52,6.8-23.43,13.83-35.3,20.77-1.93,1.12-2.31,2.52-2.33,4.55-.05,5.68-.12,11.91-.2,19.6h-2.35c-.07-7.19-.14-14.7-.21-22.31-4.11-2.84-15.53-9.79-29.1-17.7s-23.93-13.66-26.31-14.6c.15,16.73.31,35.11.5,54.61h-2.62c.09-11.55.23-23.29.36-34.64v-.71c.07-5.33.13-10.85.19-16.27a21,21,0,0,0-.11-2.16h0v-.05c0-.36-.05-.74-.08-1.14l-.56.27h0a20.73,20.73,0,0,0-2,1l-17.06,10.06,0,0c-10.89,6.43-22.16,13.08-33.26,19.58a4.71,4.71,0,0,0-2,2,4.8,4.8,0,0,0-.55,2.78c0,5.65-.1,11.78-.18,19.28H442.4c-.06-7.64-.1-14-.12-20a4.13,4.13,0,0,0-.74-2.5l-.14-.16h0l-.07-.08a7.81,7.81,0,0,0-1.88-1.45l-49.16-29.11-.53-.31c-.6-.36-1.24-.67-2-1h0l0,0-.8-.4a11.13,11.13,0,0,0-.22,1.52c.05,6.39.1,12.88.16,19.16v1c.09,11,.19,22.31.26,33.46h-2.6c.1-10.87.23-21.8.35-32.37.07-6.17.15-13.17.23-19.88a24.62,24.62,0,0,0-.29-2.84l-.36.17-.08,0h0c-.51.24-.95.45-1.37.67l-.12.06,0,0-.25.13-15.44,9.11-.08,0c-11.52,6.8-23.43,13.83-35.18,20.69l-.05,0a6.4,6.4,0,0,0-1,.73,4.69,4.69,0,0,0-.52.57c-.05.07-.11.14-.16.22a5.87,5.87,0,0,0-.73,3.28c-.05,5.8-.11,12.12-.19,19.32h-2.38l-.13-13.7-.07-7.6a4.65,4.65,0,0,0-1.39-2.1l-12.49-7.4-.52-.31L273,553.11l-.46-.23-1-.53c0,.37-.06.71-.09,1-.07.8-.12,1.42-.12,2,0,5.49.1,11.09.15,16.35v.26c.11,11.62.22,23.63.29,35.44h-2.57c.1-11.86.25-23.92.38-35.59v-.63c.06-5.28.13-10.74.18-16.11a14.39,14.39,0,0,0-.13-1.73v0c0-.28-.06-.6-.1-.93l-4.8,2.75-.1.06c-2.56,1.47-5,2.85-7.42,4.28-13.12,7.74-26.66,15.68-40.25,23.62l-.25.16h0a1.18,1.18,0,0,1-.22.14,5.44,5.44,0,0,0-2.28,3.08,4.63,4.63,0,0,0-.13.83c0,6.09-.1,12.48-.18,20.12h-2.36c-.06-7.48-.1-14-.13-19.78a4.47,4.47,0,0,0-2.57-4.35L190,572.26v-.4c-15.22-9-32.61-18.85-34.24-19.09a10,10,0,0,0-.14,1.08c.19,18,.34,36,.45,53.64h-2.22c.17-16.17.35-32.67.56-51.9,0-.64,0-1.27-.08-2.06,0-.38-.05-.85-.07-1.35a20.53,20.53,0,0,0-2.16.91l-15.95,9.4c-11.54,6.82-23.48,13.86-35.43,20.85-1.93,1.12-2.32,2.52-2.33,4.55-.06,5.83-.12,12.05-.2,19.6h-2c-.07-7.19-.14-14.49-.21-22.32-4.85-3.35-18.63-11.61-30.14-18.31C55.15,560.62,42,553.18,40.24,552.75c.16,18.15.32,35.55.5,54.74H38.49c.08-11.64.22-23.49.36-34.94v-.42c.07-5.33.13-10.84.19-16.26a20.51,20.51,0,0,0-.11-2.15c0-.41-.07-.88-.1-1.38l-1,.48a18.23,18.23,0,0,0-1.87.95c-5.21,3.06-10.5,6.2-15.63,9.22l-.9.53-.1.06L0,575v-2.46c7.3-4.12,14.74-8.3,21.94-12.34l.27-.15,12.25-6.88,2.13-1.22.11-.07,1.4-.8a16.43,16.43,0,0,0-1.61-1.28C24.6,543.06,12.32,536.11,0,529.12V527c16.58,9.92,37.27,21.69,39.09,22l-.32-33.87L38.53,488l0-2.91L0,462.26V460.5l.66.36.2.12c11.8,6.65,24,13.54,36,20.4a5.65,5.65,0,0,0,6.4-.11c12.32-7,24.89-14,37-20.84l.32-.19c3.34-1.86,7.72-4.32,12-6.74l1.09-.63.18-.1h0c.69-.4,1.46-.85,2.47-1.42L95,450.45l0,0c-.69-.46-1.18-.8-1.72-1.1L79.8,441.71c-12.15-6.86-24.71-14-37.08-21a5.08,5.08,0,0,0-5.76.09c-11.73,6.66-23.69,13.38-35.25,19.87l-.17.1L0,441.6v-1.68c13.5-8,24.77-14.6,36.41-21.39a4.57,4.57,0,0,0,1.89-1.88,4.51,4.51,0,0,0,.5-2.62c.13-14.13.3-28.77.44-41.68v0c.07-5.5.13-11.18.2-16.77a18.65,18.65,0,0,0-.16-2v0c0-.34-.08-.68-.12-1.06l-1,.45a13.41,13.41,0,0,0-1.62.78L22.82,361.8l-.5.29-.27.16c-7.22,4.26-14.69,8.67-22,13v-2L35.9,353a15.64,15.64,0,0,0,1.53-1l0,0c.32-.22.67-.48,1.07-.75-.32-.2-.6-.4-.88-.58l0,0c-.65-.45-1.22-.83-1.81-1.16l-14.52-8.2-.22-.13h0L0,329.24v-2.38c7.74,4.57,15.72,9.31,22.77,13.49l13.34,7.91c.56.33,1.14.61,1.82.94h0c.46.23.89.43,1.37.68a13.34,13.34,0,0,0,.25-1.68c-.05-5.68-.1-11.46-.14-17V331c-.12-14.22-.25-28.93-.34-43.48a3.65,3.65,0,0,0-2.17-3.46L0,262.2v-1.75l.82.46c12.14,6.85,24.69,13.94,37,21a4.49,4.49,0,0,0,2.27.68,5.87,5.87,0,0,0,2.84-.93L83.29,259l2.77-1.56L93.91,253a29.55,29.55,0,0,0,2.4-1.76l-.72-.52h0a11.3,11.3,0,0,0-1.07-.74l-15.06-8.51-.93-.53,0,0c-11.74-6.63-23.89-13.49-35.79-20.3a4.49,4.49,0,0,0-2.23-.66,6,6,0,0,0-2.86,1L0,242v-1.33l1-.59.11-.06c11.67-6.9,23.73-14,35.63-21a4.84,4.84,0,0,0,2.58-4.77c.11-13.65.27-27.32.42-40.55.06-5.13.14-11.53.2-17.58a19.46,19.46,0,0,0-.11-2h0c0-.36-.06-.81-.1-1.31l-1.35.78-2.2,1.26,0,0c-3.16,1.81-6.14,3.52-9.09,5.25C18.29,165.29,9.19,170.63,0,176v-2.32c6.58-3.7,13.31-7.49,19.26-10.82l.68-.38,11.67-6.55c1.54-.87,3.15-1.81,4.71-2.71l2.85-1.65c-.52-.33-1-.62-1.33-.88h0c-.65-.44-1.16-.78-1.69-1.08l-14.51-8.2L0,129.19V126.8c5.92,3.49,11.93,7.06,17.74,10.5l.28.17c3.08,1.83,5.85,3.48,8.7,5.16l7,4.17L40,150.5l-.11-12,0-2.37c-.15-17.08-.3-33.77-.45-50.51L0,62.3V60.57l.42.23.24.14C13,67.91,25.8,75.12,38.33,82.27a4.48,4.48,0,0,0,2.41.7,4.43,4.43,0,0,0,2.68-.87l51-28.67A18.29,18.29,0,0,0,96,52.32h0l.89-.64-.81-.57,0,0h0a14.79,14.79,0,0,0-1.27-.85c-5-2.86-10.17-5.75-15.14-8.56l-.2-.11-.14-.08c-11.82-6.67-24-13.58-36-20.41a4.42,4.42,0,0,0-2.4-.7,4.52,4.52,0,0,0-2.69.89L0,42.75V40.93l.35-.2.25-.15C12.64,33.5,25.07,26.17,37.34,19a4.53,4.53,0,0,0,2.37-4.51c0-2.7.06-5.45.09-8.11V6.24h0L39.86.81h2.06c0,1.38,0,2.79,0,4.15V5.4c0,3,0,6.07,0,9.1a5.06,5.06,0,0,0,3,4.9c16,9.43,32.58,19.26,49.37,29.22.66.4,1.35.75,2.23,1.21l1.21.64c0-.57.08-1,.12-1.45h0c0-.64.1-1.13.1-1.63-.16-15.88-.3-31.55-.4-46.57h2.12l-.45,39.87L99.2,47a19.22,19.22,0,0,0,.14,2.14h0c0,.38.07.78.11,1.2l.83-.38,0,0h0a11.91,11.91,0,0,0,1.19-.58c17.28-10.25,34.55-20.42,51.35-30.24a4.5,4.5,0,0,0,2.37-4.5c0-2.75.05-5.55.09-8.26v-.1c0-1.75,0-3.61.06-5.45h2.05c0,1.59,0,3.2,0,4.75v.11c0,2.8,0,5.69.06,8.54a5.21,5.21,0,0,0,.71,3.08,5.3,5.3,0,0,0,2.33,2.14c10.05,5.9,20.09,11.83,29.84,17.63v-.12L212.6,50l.4.2c0-.46,0-.88,0-1.28v-.25c0-1.08.06-1.94.06-2.82v0c-.1-13.1-.22-29.4-.34-45h2.43c-.09,10-.21,20.25-.32,30.12v.18c-.06,5.58-.12,10.6-.18,15.63a21.45,21.45,0,0,0,.15,2.27c0,.32.06.68.1,1.07l.48-.23,0,0q.89-.39,1.74-.87c16.84-10,33.9-20,50.71-29.86a4.38,4.38,0,0,0,1.92-1.84,4.5,4.5,0,0,0,.55-2.61c0-3.13.05-6.32.09-9.4V5c0-1.4,0-2.79,0-4.18H273L273,6c0,3.86.07,7.71.11,11.57L291.4,28.45l5.44,3.22,3,1.76,28.87,17.12c-.15-16.89-.3-33.44-.45-49.45V.82h2.5c-.16,15.71-.33,31.21-.5,46.06,0,.65,0,1.29.07,2.11v0c0,.12,0,.24,0,.37l0,.14,0,.06c.05.18.11.37.17.59L331,50l.21-.1a18.7,18.7,0,0,0,1.8-.91L346,41.32l.67-.4c11.93-7.06,24.26-14.35,36.48-21.48a5.06,5.06,0,0,0,2.16-2.09,5,5,0,0,0,.6-3c0-2.86.05-5.77.08-8.59V5.6c0-1.6,0-3.19,0-4.79h2.46q.08,7.17.13,14.32l0,2.46,31,18.4,1.92,1.14,22.46,13.3-.15-16.83-.08-8.45c-.08-8.17-.15-16.26-.22-24.34h2.5c-.2,18.41-.36,33-.5,46,0,.66,0,1.32.08,2.15v.3l0,.14c0,.18.08.38.13.6l.46-.21h0a13.25,13.25,0,0,0,1.2-.58l14-8.25c12.21-7.2,24.85-14.65,37.35-21.95a4.5,4.5,0,0,0,2.37-4.51c0-2.64.06-5.34.09-7.94V6.42q0-2.79.06-5.61h2.43c0,1.6,0,3.22,0,4.74,0,2.77,0,5.91.05,9a5.06,5.06,0,0,0,3,4.9c16.71,9.87,33.32,19.7,49.37,29.21.67.4,1.37.77,2.26,1.23h0l.8.42c0-.41.07-.77.09-1.1v0c.06-.66.11-1.23.11-1.77-.15-15-.29-30.69-.4-46.57h2.49V2.39q-.25,22.29-.5,44.6a17.89,17.89,0,0,0,.14,2.19h0c0,.32.06.64.09,1l.42-.19h0c.43-.19.86-.4,1.28-.63,17-10.1,34.29-20.27,51.34-30.23a4.49,4.49,0,0,0,1.88-1.88,4.43,4.43,0,0,0,.49-2.62c0-3,.06-6.05.09-8.78,0-1.7,0-3.37.06-5h2.43c0,1.63,0,3.29,0,4.89V6c0,2.69,0,5.47,0,8.21a5.37,5.37,0,0,0,3.05,5.22c12.14,7.1,24.32,14.33,36.1,21.32l13,7.71c.67.4,1.37.76,2.26,1.21h0l.1,0,1,.5a2,2,0,0,1,0-.25V49.7l-.15-16.94-.09-10.47q-.11-10.77-.2-21.48H677c-.17,15.25-.34,30.63-.5,45.74,0,.7,0,1.4.07,2.21v0c0,.44,0,.85.06,1.31l.46-.14h0l.1,0,1.2-.59C695.54,39.2,712.88,29,730,19a5.68,5.68,0,0,0,.74-.55l.13-.1.17-.14a3.72,3.72,0,0,0,.52-.68,5,5,0,0,0,.6-2.61c.05-4.1.09-8.58.16-14.1h2.46c0,5.31.1,10.68.14,15.42l0,1.44,15.25,9L752,27.78l1.57.93L790.47,50.6c-.08-9.64-.17-19.22-.26-28.49v-.38l0-4.75Q790.1,8.87,790,.81h2.48c-.18,16.72-.34,32.24-.5,47.45a7.72,7.72,0,0,0,.46,1.94l.33-.16.13-.06c.73-.34,1.3-.61,1.84-.91l13.38-7.92.09,0C820.3,34,832.78,26.58,845.1,19.38a4.78,4.78,0,0,0,2.58-4.76c0-3.38.06-6.8.1-9.82V3.48l0-2.67h2.47c.05,4.9.09,9.78.14,15.2v1.64c18.47,10.93,36.75,21.77,55.4,32.83-.17-19.64-.31-34.95-.44-49.66h2.49c-.16,14.32-.33,29.65-.5,46.85a12.41,12.41,0,0,0,.38,2.34l.31-.14h0c.5-.23.86-.39,1.19-.57l.4-.23,1-.57.29-.17,12.32-7.26,1.18-.7.23-.13c11.83-7,24.06-14.18,36.12-21.22a4.48,4.48,0,0,0,1.89-1.89,4.57,4.57,0,0,0,.49-2.62c0-2.85.06-5.75.09-8.55V4.56c0-1.24,0-2.49,0-3.73h2.07c0,1.58,0,3.2,0,4.76v.13c0,3.13,0,5.94.05,8.8a5,5,0,0,0,3,4.89c16.45,9.72,33.06,19.55,49.38,29.22.65.39,1.33.75,2.2,1.2l0,0,1.22.64c0-.55.07-1,.11-1.42v0c0-.63.1-1.13.1-1.63-.16-14.84-.29-30.51-.4-46.57h2.12q-.26,22.73-.5,45.43V47a19.56,19.56,0,0,0,.13,2.16h0c0,.37.07.76.11,1.17l.87-.4a10.07,10.07,0,0,0,1.19-.58c17-10.07,34.25-20.24,51.34-30.23a4.51,4.51,0,0,0,1.89-1.88,4.57,4.57,0,0,0,.49-2.62c0-2.68,0-5.4.08-8V5.84c0-1.65,0-3.35.06-5h2.06c0,1.57,0,3.16,0,4.65,0,2.71,0,5.78,0,8.74a5.37,5.37,0,0,0,3,5.23c12,7,24.07,14.18,35.78,21.13l0,0,1.05.63,12.23,7.25c.66.4,1.35.74,2.22,1.19.45.22,1,.48,1.52.78-.1-10.84-.19-21.69-.28-32.18v-.41q-.09-8.52-.16-17h2.13c-.15,14-.31,28.54-.51,45.74,0,.7,0,1.39.07,2.19v0c0,.45,0,.92.07,1.45a11.79,11.79,0,0,0,1.55-.53c17.32-10.24,34.93-20.6,52.35-30.79a4,4,0,0,0,2-4c0-3.91.09-8.39.15-14.1h2.09l0,3.57q.08,6.66.13,13.3l11.24,6.66,1.32.78,43.37,25.71-.09-10c-.13-13.57-.25-26.85-.37-40h2.11c-.18,16.78-.35,32.3-.5,47.44a9.83,9.83,0,0,0,.52,2.14l1.06-.52h0c.55-.27,1-.5,1.47-.76l12.55-7.42c12.39-7.33,25.2-14.9,37.86-22.31a4.78,4.78,0,0,0,2.58-4.76c0-3.63.07-7.4.1-10.73l0-1.52,0-1.56h2.09l0,3.19q.06,6.83.13,13.64l55,32.6v3l-.5.23,0,0c-.42.2-.79.37-1.13.57-17,10.07-34.25,20.25-51.32,30.25a4.21,4.21,0,0,0-2.32,4.15c-.12,13.7-.27,27.62-.43,41.08v.21c-.08,6.7-.14,12.15-.19,17.16,0,.64,0,1.28.08,2,0,.35,0,.73.08,1.14a10.46,10.46,0,0,0,1.24-.38c17.5-10.32,35.21-20.74,52.64-30.95a3.73,3.73,0,0,0,1.89-2.47v4.19a9.37,9.37,0,0,0-2.88,1.16c-11.76,6.73-23.76,13.46-35.37,20l0,0-13.93,7.82c-.52.3-1,.63-1.65,1.05l0,0-1.25.82.87.62a14.39,14.39,0,0,0,1.38.92l13.67,7.73.25.14c12.34,7,25.1,14.18,37.62,21.33a4.62,4.62,0,0,0,1.37.59v25.44c-.07-7.6-.14-15.34-.21-22.61-13.39-7.95-27.17-16.11-39.33-23.32l-6.4-3.79-9.9-5.87c-.05.42-.1.74-.14,1v0a6.15,6.15,0,0,0-.1.85c0,5.09.09,10.27.13,15.28l0,2.59c.13,14,.25,28.52.34,42.87a3.63,3.63,0,0,0,2.14,3.48c16.93,10,33.82,20,51.63,30.56a11.59,11.59,0,0,0,1.83.62v3.66c0-.25-.07-.52-.12-.8l-1,.47-.09,0c-.44.21-.87.41-1.25.63l-13.39,7.9c-12.31,7.28-25,14.8-37.62,22.15a4.52,4.52,0,0,0-2.4,4.48c-.12,14.07-.28,28.16-.44,41.78-.07,5.81-.13,11.05-.19,16.3,0,.61,0,1.2.07,2v.05c0,.41.05.87.07,1.4l1-.47h0c.37-.16.74-.34,1.1-.54l15.45-9.1.08,0,.18-.11c11.68-6.88,23.75-14,35.65-20.95a4.53,4.53,0,0,0,1.89-1.89,4.49,4.49,0,0,0,.48-2.62c.1-12.27.26-25.1.39-36.42l0-4.25v46.65a4.56,4.56,0,0,0-1.92.82l-50.64,28.46a20.7,20.7,0,0,0-1.73,1.15h0c-.34.25-.7.5-1.1.77l.9.64a12.28,12.28,0,0,0,1.22.81l15.5,8.77.06,0c11.79,6.66,24,13.54,35.94,20.37a4.45,4.45,0,0,0,1.79.65v137a4.27,4.27,0,0,0-2.14.74l-51.6,29a13.8,13.8,0,0,0-1.34.92h0l-.86.63,1,.65h0c.8.53,1.44.95,2.12,1.33,5.42,3.08,10.9,6.17,16.2,9.17,10.94,6.18,22.25,12.56,33.35,18.94a5.91,5.91,0,0,0,3.3,1.08V719.37h-.24a4.88,4.88,0,0,0-.76.07ZM94.93,581.59a4.57,4.57,0,0,0,2.41.7,4.5,4.5,0,0,0,2.67-.88c17.09-9.62,34.12-19.2,50.64-28.47l1.32-.75.06,0,1.72-1-1-.73a14.56,14.56,0,0,0-1.33-.88l-15-8.47c-11.94-6.74-24.28-13.71-36.52-20.7a4.51,4.51,0,0,0-5.09.2L44.16,549c-.61.36-1.19.77-1.87,1.24h0l-1,.69c.3.2.56.4.8.57l0,0h0a11.86,11.86,0,0,0,1.25.84c17.11,9.62,34.44,19.43,51.51,29.16ZM1021,519.69a4.46,4.46,0,0,0-2.7.89L967.64,549c-.6.35-1.18.75-1.84,1.22h0l0,0-1,.68c.3.2.56.4.79.56l0,0a13.62,13.62,0,0,0,1.28.86c17.05,9.58,34.38,19.39,51.51,29.16a4.49,4.49,0,0,0,5.08-.18c17.93-10.1,34.49-19.41,50.64-28.47l1.42-.81.18-.11,1.5-.86c-.4-.27-.73-.51-1-.71q-.66-.48-1.35-.9l-14.39-8.13-.61-.35-.1,0c-11.94-6.75-24.29-13.72-36.4-20.64a4.46,4.46,0,0,0-2.39-.68Zm227.83,61.66a5.36,5.36,0,0,0,6.08-.07c12.58-7.13,25.41-14.32,37.82-21.27l.22-.12,11.68-6.55,1.5-.86,2-1.14a14.18,14.18,0,0,0-1.46-1.23c-17.9-10.11-35.67-20.19-52.82-30a4,4,0,0,0-4.45.23l-51.63,29.07a16.4,16.4,0,0,0-2,1.65l.61.4.16.1,0,0c.76.49,1.36.87,2,1.23l14.3,8.09.62.35c11.59,6.54,23.57,13.3,35.32,20.05Zm-689.7-61.63a6.09,6.09,0,0,0-2.38.86L506.08,549c-.6.35-1.18.76-1.84,1.23h0l-1,.7.78.57h0a12.88,12.88,0,0,0,1.3.88c17.14,9.63,34.47,19.45,51.51,29.16a4.58,4.58,0,0,0,2.34.67h0a6.17,6.17,0,0,0,2.38-.84c16.36-9.22,33.4-18.8,50.63-28.47.46-.25.91-.52,1.5-.86h0l1.58-.91-.94-.66-.08-.06h0a14.56,14.56,0,0,0-1.33-.88l-15.37-8.69-.1,0c-11.79-6.66-24-13.55-36-20.43a4.47,4.47,0,0,0-2.34-.66Zm230.9,0a4.78,4.78,0,0,0-.84.08,7.33,7.33,0,0,0-1.35.58c-17.83,10-35.2,19.82-51.64,29.08a16.4,16.4,0,0,0-2,1.65l.77.49,0,0c.76.49,1.36.88,2,1.23l14.84,8.39c11.6,6.55,23.6,13.32,35.41,20.1a5.92,5.92,0,0,0,2.86.88,4.14,4.14,0,0,0,1-.19l.11,0,.15,0a8.51,8.51,0,0,0,1.53-.71c12.63-7.15,25.41-14.31,37.77-21.24l2.79-1.56,9.17-5.14,1.68-1,1.8-1a15.45,15.45,0,0,0-1.45-1.23c-17.38-9.81-35.15-19.89-52.82-30a4.27,4.27,0,0,0-.67-.27,4.6,4.6,0,0,0-1.22-.17Zm-461.94,0a4.63,4.63,0,0,0-1.1.2l-.1,0-.06,0a8.94,8.94,0,0,0-1.18.54l-.55.32-8.16,4.59-42.08,23.71a13.42,13.42,0,0,0-1.69,1.18l0,0v0c-.21.2-.43.4-.68.61l.86.58,0,0h0c.65.44,1.2.81,1.77,1.14l15.18,8.58.05,0c11.6,6.55,23.58,13.32,35.34,20a5.57,5.57,0,0,0,2.69.82,6.47,6.47,0,0,0,2.69-.91c12.81-7.27,25.86-14.59,38.49-21.66l.08,0,.72-.41,10.74-6c.69-.38,1.36-.77,2.29-1.3l0,0,.46-.26.62-.37-.15-.13-1.15-.78c-.67-.45-1.2-.81-1.73-1.11l-14.26-8.06c-11.88-6.7-24.15-13.63-36.31-20.6a5.43,5.43,0,0,0-2.8-.81Zm804.44,61.08a6.46,6.46,0,0,0,7.4.07c10.78-6.19,21.79-12.35,32.45-18.31h0l12.06-6.76c1.68-.95,3.36-1.92,5.14-2.95l3.12-1.8-1.32-.85h0c-.78-.51-1.4-.92-2-1.28l-12.36-7-.28-.16c-12.23-6.9-24.87-14-37.29-21.16a5.66,5.66,0,0,0-6.41.09c-11.5,6.55-23.24,13.14-34.59,19.51l-.18.1-.48.27-15.09,8.48a28.66,28.66,0,0,0-2.58,1.91c1.57.93,2.69,1.58,3.85,2.24l12.67,7.16.63.35c11.58,6.54,23.55,13.29,35.32,20.08Zm-458-61.08a6.64,6.64,0,0,0-3.11,1C660,527.23,648.26,533.8,637,540.15l-.22.12-.23.13-15.43,8.67a28.28,28.28,0,0,0-2.58,1.92l.61.35,3.24,1.88,13.34,7.54c11.58,6.53,23.55,13.28,35.28,20a8.07,8.07,0,0,0,3.4,1.17h0a7.24,7.24,0,0,0,3.7-1.16l3.6-2,2.34-1.32c9.58-5.45,19.25-10.87,28.6-16.11l9.9-5.55c1.72-1,3.5-2,5.22-3l3-1.75-1.32-.86h0c-.79-.51-1.41-.92-2-1.28l-11.44-6.45-1.2-.68-.05,0c-12.22-6.9-24.86-14-37.24-21.12a6.15,6.15,0,0,0-2.92-.91Zm231.05-.12a4.79,4.79,0,0,0-2.27.7l-51.6,29a11.34,11.34,0,0,0-1.34.92c-.27.2-.56.42-.88.64l1,.66h0c.76.5,1.42.94,2.09,1.31,5.17,2.94,10.44,5.91,15.53,8.79l.53.3c11,6.21,22.36,12.63,33.5,19a9,9,0,0,0,1.7.79,5.38,5.38,0,0,0,1.44.2,5.53,5.53,0,0,0,.71,0l.11,0h0l.19,0a7.59,7.59,0,0,0,.78-.22,9.11,9.11,0,0,0,1.42-.65c9.71-5.52,19.33-11,28.6-16.17h0l20.82-11.69,2-1.14.06,0,1.59-.92a18.21,18.21,0,0,0-1.62-1.28l-22.85-12.94v.1c-10.1-5.69-20-11.29-29.42-16.65a4.78,4.78,0,0,0-2.13-.69ZM190.39,570.07h0l4.4,2.5c4.56,2.58,9.73,5.51,14.67,8.36a9.07,9.07,0,0,0,1.74.78,5.32,5.32,0,0,0,1.12.24h.25a7.35,7.35,0,0,0,3.56-1.15c10.62-6,21.42-12.1,31.85-17.94l12.69-7.11c1.5-.85,3-1.72,4.58-2.63l.05,0,.06,0,3.5-2-.86-.62-.1-.07h0a19.17,19.17,0,0,0-1.64-1.11l-14.19-8c-12-6.8-24.5-13.83-36.71-20.81a6.88,6.88,0,0,0-1.21-.54,5.24,5.24,0,0,0-1.36-.18,4.85,4.85,0,0,0-2,.4l-.5.22-.06,0,0,0a3.14,3.14,0,0,0-.37.18c-6.79,3.84-13.15,7.42-19.44,11h0c-8.9,5-18.83,10.58-31.24,17.57a28.17,28.17,0,0,0-2.58,1.91l0,0,.11.07,3.71,2.14c10.14,5.73,20.22,11.43,30,17v-.1Zm253.37-50.48a4,4,0,0,0-1.37.25,7,7,0,0,0-.87.42l-51.61,29a13.33,13.33,0,0,0-1.4,1l-.83.61,1.06.69c.75.49,1.4.92,2.05,1.29l12.7,7.18.89.5.23.13c11.73,6.62,23.85,13.47,35.73,20.29a7,7,0,0,0,3.07,1h0a6.59,6.59,0,0,0,3.3-1c12.31-7,24.8-14.05,36.88-20.82l1.37-.77L496,553.16l2.25-1.29.05,0,1.35-.77a17.84,17.84,0,0,0-1.62-1.28c-17.58-9.92-35.23-19.93-52.45-29.73a5.26,5.26,0,0,0-.82-.34,4.3,4.3,0,0,0-1-.13Zm693.48-67.39h0c0,.66,0,1.25,0,1.78v.13c0,1-.06,1.92,0,2.8,0,5.35.1,10.79.15,15.6.13,13.31.27,27.06.27,40.7A5.83,5.83,0,0,0,1141,519c12,7,24.2,14.25,36,21.24l.14.09.76.45,11.57,6.87c.67.4,1.36.78,2.22,1.26l.07,0,1.73,1c-.21-23.51-.41-45.91-.59-64.73-7.27-4.29-14.64-8.67-21.15-12.53-11.2-6.66-22.78-13.54-34.49-20.39Zm115.42.09h0c0,.48,0,.9-.06,1.32v.07h0c0,1-.1,1.8-.09,2.62,0,5.24.1,10.57.15,16,.13,13.43.26,27.31.3,41a5.58,5.58,0,0,0,3.18,5.52c12,7,24,14.16,35.72,21.09l1.3.77,12.08,7.17c.69.41,1.44.79,2.24,1.19l.08,0,1.23.63c0-.52,0-1,.07-1.37.06-1,.1-1.81.1-2.64,0-5.25-.1-10.58-.15-15.27-.13-13.7-.26-27.86-.31-41.78a5.57,5.57,0,0,0-3.19-5.51c-12-7-24.12-14.2-35.86-21.17l-.13-.08-13.11-7.77c-.7-.42-1.43-.79-2.27-1.23l-1.27-.65h0Zm-923.51.57c0,.13,0,.24,0,.36v0h0a2.65,2.65,0,0,1,0,.27q.09,10.29.19,20.58l0,2.7c.1,11.7.23,25.28.35,38.45a4.79,4.79,0,0,0,1.45,2.5l30.15,17.88,5.56,3.3L384,549.1l1.14.58.08,0,0,0c-.18-19.54-.37-40.24-.58-63.28a4.65,4.65,0,0,0-1.06-1.82c-2.05-1.39-6-3.85-11.41-7.11-7.22-4.24-14.52-8.55-21.68-12.8h0c-11.32-6.56-19.32-11-21.38-11.87Zm1037.17-.47h0l-1,.58-.11.06-.08.05-1.69,1-12.92,7.62c-11.94,7-24.28,14.33-36.57,21.48a5.65,5.65,0,0,0-2.46,2.28,5.58,5.58,0,0,0-.73,3.27c-.08,13.44-.24,26.93-.4,40v.23c-.06,5.51-.13,11.21-.19,16.8,0,.77,0,1.54.07,2.42v0c0,.5,0,1,.06,1.54a14.22,14.22,0,0,0,1.65-.61c17.47-10.34,35.07-20.72,52.33-30.85a3.68,3.68,0,0,0,1.9-3.65c.23-19.31.44-38.81.65-59.59a12.92,12.92,0,0,0-.51-2.62Zm-1268.08.23c0,.33,0,.62,0,.9v.07c0,.67-.08,1.29-.07,1.9,0,5.23.1,10.57.15,15.59v.17c.13,14,.27,28.47.33,42.71a4.71,4.71,0,0,0,2.77,4.61c10.95,6.44,22,13,32.74,19.36L151.06,548c.66.38,1.36.73,2.16,1.12h0l.05,0,1,.51a13.32,13.32,0,0,0,.26-1.66c-.19-19.93-.35-40.35-.47-60.69a3.63,3.63,0,0,0-2.14-3.48c-17.9-10.61-35.25-20.89-51.59-30.55a10.47,10.47,0,0,0-2.11-.64Zm923.46,0c0,.33,0,.63,0,.92v.12c0,.67-.07,1.25-.06,1.84,0,4.44.08,9,.12,13.33l0,1.73v.19c.14,14.17.28,28.8.33,43.22a4.74,4.74,0,0,0,2.78,4.61c10.8,6.34,21.75,12.84,32.34,19.12l.28.17L1074.53,548c.65.38,1.34.72,2.13,1.12h0l1.09.54A13,13,0,0,0,1078,548c-.19-19.83-.35-40.25-.48-60.69a3.63,3.63,0,0,0-2.14-3.48l-51.59-30.55h0a9.87,9.87,0,0,0-2.11-.64Zm173.55,35.49h0c-.09,13.29-.24,26.8-.4,39.87v.44c-.06,5.84-.13,11.88-.2,17.81a20.34,20.34,0,0,0,.16,2.22v.09c0,.34.08.7.11,1.09l1-.5.08,0c.64-.31,1.14-.56,1.62-.84l12.27-7.24c12.47-7.37,25.37-15,38.15-22.45a4.78,4.78,0,0,0,2.63-4.73c.11-14.64.28-29.4.45-43.67l0-2.88c0-3.86.09-7.72.14-11.57,0-.61,0-1.21-.09-2,0-.42-.06-.89-.09-1.43-.37.18-.7.32-1,.45l-.07,0a13.64,13.64,0,0,0-1.44.7l-13.74,8.1-1.52.9c-10.9,6.43-23.24,13.71-35.16,20.67a5.1,5.1,0,0,0-3,5h0ZM791.08,452.87c0,.28,0,.55,0,.8h0c0,1-.1,1.81-.09,2.64,0,5.34.1,10.71.15,15.91v.11c.13,13.44.26,27.34.3,41a5.57,5.57,0,0,0,3.18,5.52c11.74,6.86,23.63,13.92,35.13,20.74l.22.13.07,0,13.68,8.11c.7.41,1.43.79,2.28,1.22l.12.06.79.4,0-.85,0-.22v0c.05-1,.1-1.88.1-2.74,0-5.1-.1-10.3-.14-14.88-.14-13.8-.27-28.08-.32-42.16a5.46,5.46,0,0,0-2.77-5.23l-.23-.15-.24-.15-.61-.39C830.92,475.9,819,468.85,807.55,462l-5.81-3.45c-5.67-3.19-9.35-5.17-10.65-5.71Zm-348.2-.27h0l-3.22,1.85-.46.26c-3,1.74-5.87,3.38-8.68,5-13.6,8-27.14,15.94-40.25,23.61-.17.1-.33.21-.46.3h0l-.14.1a5.16,5.16,0,0,0-2.12,2.95,4.36,4.36,0,0,0-.13.87h0c-.09,13-.24,26.17-.39,38.94v.2c-.07,6-.15,13.38-.23,20.47a12.2,12.2,0,0,0,.48,2.39l.2-.08,1-.55,0,0,1.69-1,12.49-7.39c12-7.1,24.39-14.44,36.65-21.58a5.65,5.65,0,0,0,3.18-5.55c.08-13.77.25-27.78.42-41.33V472c.06-4.81.13-10.26.19-15.59,0-.76,0-1.52-.08-2.4,0-.4,0-.74,0-1.08l-.06-.24v0l0-.07Zm232.79-.08h0c0,.54,0,1,0,1.49v0c0,1.11-.06,2,0,2.87,0,5.18.1,10.45.15,15.54v.22c.13,13.27.27,27,.27,40.53a5.83,5.83,0,0,0,3.44,5.74c11.87,6.93,23.88,14.07,35.5,21l.12.07,12.83,7.61c.71.43,1.44.83,2.44,1.38h0l1.06.59c0-.45.07-.8.11-1.16v-.12c-.12-14.19-.25-28.31-.38-42l0-5-.14-15a3.78,3.78,0,0,0-1.25-1.93c-6.16-3.64-12.29-7.29-19.1-11.32l-.13-.09c-11-6.53-22.37-13.28-33.8-20l-1-.47Zm228.77.08-3.28,1.88-11.94,7c-11.44,6.74-24.4,14.4-36.83,21.63a5.64,5.64,0,0,0-3.19,5.55c-.08,13.2-.24,26.57-.39,39.5-.07,6.25-.14,11.89-.2,17.51,0,.8,0,1.59.07,2.51v.23c0,.22,0,.44,0,.68a2.17,2.17,0,0,1,.07.24v.1l0,.08a8.67,8.67,0,0,0,1.2-.45c16.76-9.92,34.13-20.15,51.62-30.43a5.37,5.37,0,0,0,2.55-3.34.5.5,0,0,1,0-.12v0h0a5.44,5.44,0,0,0,0-.57c.24-19.74.46-39.79.66-59.59a11.73,11.73,0,0,0-.45-2.42Zm115.69-.27h0c-.35.18-.67.33-1,.46-.57.27-1,.49-1.43.74l-13.25,7.81-2,1.16c-11.1,6.55-23.69,14-35.81,21.07a4.42,4.42,0,0,0-1.89,1.89,4.48,4.48,0,0,0-.49,2.62c-.11,12.54-.26,25.3-.4,37.64v.52c-.07,6.17-.15,13.16-.22,19.9,0,.63,0,1.24.07,2v0c0,.43.05.87.07,1.36l1-.45c.5-.23.87-.4,1.21-.6l13.61-8c11.71-6.9,25-14.73,37.75-22.18,1.93-1.13,2.32-2.51,2.34-4.52.11-12.59.26-25.66.4-37.19.07-6.08.16-13.66.23-20.89a17.09,17.09,0,0,0-.14-2.14h0c0-.39-.08-.79-.11-1.22Zm-806.38.19h0v.18a2.81,2.81,0,0,0,0,.29q.07,8.36.15,16.6l0,4.6c.13,14.64.25,27.82.37,41a5,5,0,0,0,1.62,2.65c19.85,11.76,36.55,21.66,53.56,31.72,0-.41.08-.8.1-1.07a13.61,13.61,0,0,0,.12-1.8c-.05-5.72-.1-11.53-.15-17.16V529c-.13-13.5-.26-27.47-.32-41.25a4.48,4.48,0,0,0-2.67-4.3l-49.72-29.43c-.6-.35-1.25-.66-2.06-1.06h0l-1-.48Zm-117.1-.2h0l-.89.44-.06,0c-.56.27-1,.49-1.43.74l-15.35,9.06-.06,0c-11.66,6.89-23.71,14-35.6,21a4.5,4.5,0,0,0-2.37,4.5c-.11,12.94-.27,26-.41,38.65-.08,6.57-.15,13-.22,19.42,0,.64,0,1.28.07,2.08h0c0,.38.05.82.07,1.3l1-.45h0c.5-.23.85-.39,1.2-.59l11.59-6.83,1.86-1.1c12.4-7.31,25.21-14.86,37.91-22.27,1.93-1.12,2.32-2.51,2.34-4.52.11-12.64.26-25.44.4-37.82q.12-10.38.23-20.26a19.06,19.06,0,0,0-.15-2.13c0-.37-.08-.79-.11-1.23Zm1038.92.18h0c-.3.15-.56.28-.79.38-.51.25-.88.43-1.25.64l-16,9.44-.47.28h0c-11.41,6.74-23.21,13.7-34.85,20.51a4.22,4.22,0,0,0-2.32,4.17c-.12,13.54-.27,27.24-.42,40.48-.07,5.93-.14,12.23-.21,18.33,0,.55,0,1.12.09,1.72v0c0,.32.05.66.07,1a7.83,7.83,0,0,0,1.25-.38c17.4-10.28,35.11-20.69,52.63-31a4,4,0,0,0,2-4c.11-11.71.25-23.73.37-34.35v-.13c.09-8,.19-16.22.27-24.33a21.86,21.86,0,0,0-.35-2.9ZM190.38,465.11h0c-10.43,6.19-21.08,12.46-31.65,18.65a4.22,4.22,0,0,0-2.33,4.16c-.12,14.05-.28,28.34-.44,42.16v.09c-.07,5.91-.13,11.23-.19,16.56,0,.56,0,1.11.09,1.74v0c0,.31,0,.64.08,1a7.72,7.72,0,0,0,1.24-.38l17.59-10.34,9.6-5.65,5.64-3.31v-.18c6.44-3.82,12.81-7.57,18.94-11.14a4.77,4.77,0,0,0,2.6-4.75c.09-12.13.24-24.46.38-36.4V477c.09-6.87.17-14,.24-20.95,0-.7,0-1.4-.09-2.28v0c0-.36,0-.75-.07-1.18l-.22.11-.39.18,0,0c-.45.22-.8.39-1.13.57l-.09.05c-.53.31-1.08.62-1.6.94l-.24.14-.28.16-17.65,10.42v0Zm369.77-12.39c0,.32,0,.62,0,.9h0c0,.69-.07,1.28-.07,1.87.05,5,.1,10.23.15,15.1.13,14.2.27,28.88.33,43.37a4.73,4.73,0,0,0,2.77,4.61c11.05,6.5,22.11,13.06,32.8,19.4L613,548c.65.38,1.34.73,2.15,1.13l.74.37a12.49,12.49,0,0,0,.24-1.49c-.19-20-.35-40.45-.48-60.69a3.63,3.63,0,0,0-2.14-3.48c-18-10.64-34.82-20.63-51.59-30.55a6.65,6.65,0,0,0-1.74-.55Zm-232.95-.2-.23.1-.08,0-.65.29a10.36,10.36,0,0,0-1,.5c-5.05,3-10.18,6-15.14,8.94l-.13.07c-11.5,6.79-23.4,13.82-35.16,20.65l-.2.13,0,0-.05,0a6.32,6.32,0,0,0-.68.47,5.36,5.36,0,0,0-1.95,4.67h0c-.1,12.91-.25,26-.4,38.74v.14c-.07,5.73-.14,12.23-.21,18.51,0,.69,0,1.4.08,2.23v.08c0,.39,0,.83.06,1.31l.33-.15.2-.1h0c.57-.26,1-.43,1.3-.63,16.95-10,34.24-20.22,51.38-30.26a4.19,4.19,0,0,0,2.3-4.17c.11-12.37.26-25,.4-37.13v-.49c.08-6.71.16-14.33.24-21.62a14.73,14.73,0,0,0-.37-2.38Zm461.92,0c-.7.29-1.39.62-2.06,1l-15.26,9c-11.51,6.8-23.41,13.82-35.16,20.68a5.07,5.07,0,0,0-3,4.95c-.08,13.85-.25,27.87-.41,41.44-.07,5.64-.13,11.17-.19,16.68a19.6,19.6,0,0,0,.15,2.16h0c0,.36.07.69.1,1.05l.14-.06.38-.19.18-.09c.65-.32,1.17-.57,1.67-.86l11-6.5.74-.43.16-.1c12.61-7.44,25.65-15.14,38.5-22.66a4.76,4.76,0,0,0,2.63-4.72c.11-14,.27-28.14.43-41.85v-1.44c.06-4.87.12-9.9.17-14.84,0-.65,0-1.31-.09-2.15v-.13a2.83,2.83,0,0,0,0-.29,2,2,0,0,0-.06-.32c0-.11,0-.19,0-.3Zm-115.46.16,0,0-.34.17h0c-.52.24-.92.44-1.28.65L656,463l-.47.28h0c-11.42,6.74-23.22,13.7-34.85,20.51a4.24,4.24,0,0,0-2.33,4.16h0c-.12,14.74-.3,29.71-.46,44.19v.14q-.09,7.23-.17,14.48c0,.54,0,1.09.09,1.72h0v.09c0,.27.05.55.07.86a4.09,4.09,0,0,0,.88-.28c17.55-10.36,35.18-20.74,52.41-30.83a4.53,4.53,0,0,0,2-2.39,6.87,6.87,0,0,0,.22-1.69c.1-11.36.24-22.9.36-34.07v-.8c.09-7.85.18-16,.26-23.95a19.53,19.53,0,0,0-.32-2.73Zm-115.44-.18h0l-.44.22,0,0c-.59.28-1.1.52-1.55.79l-14.63,8.63-.24.15c-11.8,7-24,14.17-36.13,21.26a4.51,4.51,0,0,0-2.38,4.51c-.11,12.94-.27,26.07-.41,38.77l0,1.19c-.07,5.94-.14,12.08-.2,18.1,0,.64,0,1.26.07,2,0,.34,0,.75.06,1.18l.28-.13.3-.13h0c.52-.24.89-.41,1.24-.61l10.92-6.44,2.33-1.37c12.46-7.35,25.34-14.94,38.1-22.39,1.94-1.12,2.33-2.51,2.35-4.52.1-12.4.25-25,.4-37.21v-.73c.09-7.15.16-13.6.23-20.14a17.6,17.6,0,0,0-.14-2.18v-.06c0-.31-.06-.62-.09-.95ZM909,518.12h0l28.19,16.7.28.16v.29c10.64,6.18,23.59,13.5,25.07,13.76l-.27-29.41-.08-8.08q-.12-13.23-.25-26.44l-24.85-14.73v.13l-12.05-7.15-1.68-1-17-10.05.14,15.15.07,7.9c.13,14.1.26,27.67.38,41.43.54.38,1.21.83,2,1.35h0Zm-455.93,3.55L475.57,535v.08c13,7.57,22.86,13,25.06,13.85-.2-22.36-.41-44.66-.59-63.81l-55.4-32.86c.1,10.56.19,21,.28,31.15v.38l.05,4.84c.08,9.4.16,18.71.25,28,1.32,1,4,2.68,7.87,5.08Zm854.16-40h0a4.71,4.71,0,0,0,2.31.68,6.42,6.42,0,0,0,3.11-1.05l49.71-28,2.21-1.26,1.48-.86-1.27-.86h0c-.6-.41-1-.71-1.49-1L1347,440.2l-.22-.13,0,0c-11.26-6.36-22.91-12.94-34.33-19.47a5.09,5.09,0,0,0-5.76.15c-11.17,6.34-22.54,12.73-33.55,18.91l-.09.05-17,9.57a23.68,23.68,0,0,0-2.41,1.81l1,.66c.43.3.8.56,1.19.78l13.09,7.4.78.44.08,0c12.33,7,25.08,14.16,37.58,21.31Zm-112.88-61.86a4.47,4.47,0,0,0-2.7.9l-47,26.41-3.67,2.06a21.7,21.7,0,0,0-1.81,1.2l-1,.73,1.1.72,0,0c.68.45,1.33.87,2,1.24,4.55,2.57,9.19,5.2,13.68,7.72l1,.57c11.52,6.5,23.43,13.22,35.2,20a5.31,5.31,0,0,0,3,.95,5.37,5.37,0,0,0,3-.94c12.33-7,24.91-14.06,37.07-20.89h0l12.88-7.23,1.93-1.1c.44-.26.92-.54,1.48-.85l-.86-.61-.13-.09a14.39,14.39,0,0,0-1.38-.92L1233,441.09l-.07,0c-11.87-6.7-24.15-13.64-36.19-20.52a4.46,4.46,0,0,0-2.36-.67ZM960.28,481.39h0a5.61,5.61,0,0,0,6.39-.1c12.42-7.06,25.09-14.15,37.35-21l.2-.12,1.33-.74,10.52-5.9,1.17-.68,2.58-1.49-1.36-.9v0c-.68-.45-1.18-.78-1.7-1.08l-14.2-8-.33-.19c-11.83-6.68-24.06-13.59-36.05-20.45a5,5,0,0,0-5.75.08c-7.82,4.43-15.54,8.79-22.94,13v.2L910.68,449c-.58.32-1.15.65-1.87,1.07l0,0-.55.31c-.25.2-.52.41-.83.63l1.08.76h0c.58.41,1,.71,1.45,1l27.56,15.58v.07c7.44,4.2,15.11,8.56,22.79,13Zm-112.4-61.6a6.42,6.42,0,0,0-2.78.93C834,427,822.63,433.4,811.68,439.55l-17.24,9.7a23.81,23.81,0,0,0-2.42,1.81l1,.67h0c.42.29.78.54,1.15.75l13.37,7.55,1,.55c12.2,6.89,24.83,14,37.21,21.1.22.12.44.23.67.33l.09,0h0l.06,0a3.24,3.24,0,0,0,.53.16,3.51,3.51,0,0,0,.72.07,4.15,4.15,0,0,0,1.77-.39c.41-.18.81-.39,1.2-.61,17.14-9.65,33.86-19.06,49.71-28l.71-.4c.55-.32,1.08-.67,1.7-1.08h0l0,0,1.08-.71-1-.71h0a18.15,18.15,0,0,0-1.58-1c-5.6-3.18-11.43-6.47-16.58-9.38l-.27-.15c-11.17-6.31-22.72-12.83-34-19.31a5.33,5.33,0,0,0-2.6-.78Zm-346.31.07a6.38,6.38,0,0,0-2.69.91c-11.7,6.64-24,13.53-34.78,19.61l-1,.56-14.89,8.37a12.78,12.78,0,0,0-1.48,1.05h0c-.3.23-.64.49-1,.77l1.05.68.05,0h0c.73.47,1.35.88,2,1.25,4.76,2.69,9.55,5.4,14.06,7.93l.2.11c11.71,6.6,23.81,13.44,35.67,20.24a6.21,6.21,0,0,0,3,.92,7.14,7.14,0,0,0,3-1c12.47-7.09,25.12-14.17,37.34-21l12-6.75c.42-.23.83-.48,1.28-.74l.06,0,2.42-1.4c-.53-.34-1-.63-1.35-.9h0c-.69-.46-1.18-.79-1.72-1.1L541,441.53l-.21-.12c-12-6.78-24.38-13.78-36.52-20.73a5.58,5.58,0,0,0-2.7-.82Zm-115.36-.1a4.62,4.62,0,0,0-1.83.38,8.09,8.09,0,0,0-.84.4l-51,28.69a22.47,22.47,0,0,0-2.32,1.8l.73.51c.47.32.8.55,1.16.76l14.38,8.13.05,0,.29.16c12.19,6.88,24.78,14,37.14,21.06a4.33,4.33,0,0,0,2.21.61,6.49,6.49,0,0,0,2.53-.89l4.48-2.53.93-.52,44.94-25.28c.61-.34,1.19-.73,1.86-1.18l1.15-.76a26.23,26.23,0,0,0-2.26-1.66c-16.94-9.53-34.28-19.35-51.53-29.18a5.17,5.17,0,0,0-.94-.39,4.31,4.31,0,0,0-1.13-.13ZM269.54,482.15a4.86,4.86,0,0,0,1.14.13,5.63,5.63,0,0,0,.58,0,6.47,6.47,0,0,0,1.87-.72l50.94-28.66a17.64,17.64,0,0,0,1.62-1.09l1-.69-1-.68h0c-.62-.41-1.15-.77-1.7-1.08l-14.35-8.1-.3-.17-.1-.06c-11.74-6.63-23.87-13.48-35.77-20.3a5.33,5.33,0,0,0-2.69-.79,6.6,6.6,0,0,0-2.68.93c-15.05,8.47-31.3,17.61-49.67,27.92l-.87.49,0,0h0c-.57.33-1.1.71-1.73,1.15h0l-.92.64,1,.66c.56.39,1,.69,1.45.95,17.13,9.63,34.35,19.38,51.18,29a6.16,6.16,0,0,0,1.15.5Zm463-62.28a6.44,6.44,0,0,0-2.37.86l-25.55,14.36-.86.49-2.94,1.65-21.3,12a21.22,21.22,0,0,0-1.78,1.19l0,0c-.33.24-.67.48-1,.73l1.17.76h0c.7.46,1.3.85,1.92,1.21l13.18,7.44,1.18.66c11.65,6.58,23.7,13.38,35.53,20.16a5.71,5.71,0,0,0,3.08.88h0a5.68,5.68,0,0,0,.92-.14l.09,0,.1,0a8.42,8.42,0,0,0,1.4-.63l2.76-1.55,1.93-1.09c13.93-7.85,28.77-16.2,45.38-25.53l.55-.32.17-.09a18.84,18.84,0,0,0,1.61-1.08l.86-.61-.47-.33-.24-.17h0a14.87,14.87,0,0,0-1.43-1l-15.13-8.55-.08,0-.25-.14c-11.82-6.68-24-13.59-36-20.44a5.14,5.14,0,0,0-1.22-.5,4.12,4.12,0,0,0-1.11-.14Zm346.34-.11a5.09,5.09,0,0,0-2.87.89c-12.6,7.17-25.45,14.37-37.88,21.34l0,0-.7.39L1026,448.78l-1.93,1.1-1.58.91,1.14.79.06,0h0c.72.5,1.3.91,1.91,1.26l15.25,8.62c11.32,6.4,23,13,34.63,19.66a5.68,5.68,0,0,0,6.41,0c12.14-6.92,24.53-13.88,36.52-20.61l0,0,1.45-.81,12-6.72c.6-.34,1.17-.73,1.83-1.17h0l1.2-.79c-.41-.27-.78-.52-1.1-.75-.67-.46-1.25-.87-1.86-1.22-4.62-2.61-9.46-5.35-13.36-7.54l-.07-.05c-12.07-6.81-24.55-13.85-36.79-20.85a4.89,4.89,0,0,0-2.86-.89Zm-923.48,0a5,5,0,0,0-2.87.89C139.86,427.83,127,435,114.6,442l-12.11,6.8-2,1.13-1.54.88,1.21.84h0c.73.5,1.3.9,1.91,1.25l14.61,8.26.2.11c11.51,6.5,23.41,13.23,35.08,19.9a5.5,5.5,0,0,0,3.21,1,5.59,5.59,0,0,0,3.19-1C169.2,475,179.83,469,190,463.32v-.18l17.92-10.08,3.2-1.83h0l.21-.15-1-.74h0c-.41-.3-.83-.58-1.27-.85l-19-10.74v-.06c-10.55-5.94-21.25-12-31.79-18a5,5,0,0,0-2.88-.87Zm461.73,0a5.92,5.92,0,0,0-2.68.86c-12.51,7.12-25.17,14.21-37.42,21.08-3.5,2-8.1,4.53-12.57,7-.6.33-1.19.68-1.88,1.07l-.22.13-.33.19-1.08.62,1.2.82c.74.52,1.32.92,1.94,1.27l14.71,8.32.07,0,0,0c11.5,6.5,23.4,13.21,35,19.89a6.62,6.62,0,0,0,3,1,6.44,6.44,0,0,0,3-1c12.13-6.9,24.45-13.82,36.36-20.51l1.93-1.09L669.91,453c.6-.34,1.18-.72,1.84-1.16l1.2-.79-1-.7-.07-.05c-.67-.47-1.25-.87-1.87-1.23l-12.34-7-1.2-.67-.14-.08c-12-6.77-24.38-13.76-36.53-20.72a5.87,5.87,0,0,0-2.69-.85ZM154.76,352.54l-1.28.64,0,0h0c-.72.36-1.35.66-1.94,1-4.77,2.8-9.6,5.66-14.28,8.42-11.5,6.78-23.4,13.8-35.21,20.66a5.64,5.64,0,0,0-3.11,5.61c-.09,13.43-.25,27.07-.41,40.26-.07,6-.13,11.34-.2,16.75,0,.8,0,1.6.11,2.62v.12c0,.44,0,.93.08,1.48l1.58-.9,0,0h0c.73-.42,1.35-.77,2-1.14l9.24-5.47.77-.46.13-.07c12.76-7.56,26-15.37,39-23a5.51,5.51,0,0,0,2.43-2.3,5.61,5.61,0,0,0,.7-3.28c.08-13.85.25-27.92.41-41.53.07-5.5.13-10.46.18-15.48,0-.77,0-1.54-.09-2.44h0c0-.48-.05-1-.08-1.52Zm923.47,0h0l-1.3.65h0c-.72.36-1.35.66-1.93,1l-14.07,8.29-.35.2c-11.45,6.76-23.3,13.75-35.07,20.59a5.56,5.56,0,0,0-2.43,2.32,5.7,5.7,0,0,0-.68,3.29c-.08,13.42-.25,27.06-.4,40.24v.08c-.07,5.68-.13,11.22-.19,16.69h0c0,.73,0,1.47.09,2.33,0,.54.07,1.16.1,1.87l1.67-.95.09-.05,1.84-1.06,8.63-5.11.84-.5,0,0c13-7.68,26.39-15.62,39.64-23.34a5.51,5.51,0,0,0,2.43-2.3,5.59,5.59,0,0,0,.7-3.28c.08-13.86.25-27.94.41-41.55v-1c.06-4.74.12-9.65.17-14.46,0-.79,0-1.58-.1-2.5v-.1c0-.41-.06-.86-.08-1.34Zm1.35.54c.19,20.12.38,40.44.56,59.54l0,4.42h0l34.54,20.47,6,3.59,15.2,9c-.08-9.31-.16-18.47-.24-27v-1.26c-.12-12.5-.22-24.3-.33-36.31-3.42-2.54-17.18-10.8-29.3-17.86s-25-14.34-26.49-14.62Zm115.58-.55h0c0,.55-.05,1.06-.07,1.47,0,.93-.09,1.73-.08,2.53,0,5.27.1,10.63.15,15.81v.31c.12,12.71.25,27.11.29,40.88a5.59,5.59,0,0,0,3.23,5.49c11.42,6.68,23,13.52,34.1,20.13l14.64,8.68c.75.45,1.5.86,2.46,1.39l.29.16,1,.56c0-.46.1-.84.14-1.18v0a10.56,10.56,0,0,0,.13-1.48c0-5.66-.1-11.41-.16-17v-.13c-.13-13.9-.26-28.28-.33-42.48,0-2.05-.92-3-2.59-4l-26.74-15.83L1208.37,360l-10.31-6.1a16.06,16.06,0,0,0-1.86-.92l-.11-.05c-.28-.13-.59-.26-.93-.43Zm-578.84.2h0l-.91.45,0,0c-.73.36-1.36.67-2,1L600.22,362l-1.32.78c-11.43,6.74-23.24,13.71-35,20.53a5.64,5.64,0,0,0-3.11,5.61c-.08,13.6-.25,27.38-.41,40.71-.06,5.53-.13,10.94-.19,16.3,0,.76,0,1.5.1,2.45v.15c0,.41.05.89.08,1.41l1.24-.72,2-1.14,10.18-6c12.75-7.55,25.93-15.36,39-22.95a5.62,5.62,0,0,0,3.12-5.58c.09-13.91.26-28,.42-41.61.06-4.79.12-10.21.18-15.41,0-.78,0-1.57-.09-2.48,0-.41,0-.83-.08-1.3Zm348-.25h0c0,.4-.07.76-.1,1.1h0a17.11,17.11,0,0,0-.1,1.75c0,6.06.11,12.11.17,18.3v.19c.12,13.24.25,26.93.32,40.4a4.37,4.37,0,0,0,.6,2.57,4.45,4.45,0,0,0,1.95,1.79c15.86,9.37,32.34,19.13,50.37,29.81.52.31,1.08.56,1.72.86l1.13.53h0c0-.4.06-.78.09-1.08a17.5,17.5,0,0,0,.1-1.77c0-4.8-.09-9.7-.13-14.43l0-1.79c-.13-14-.27-28.44-.34-42.67a4.47,4.47,0,0,0-2.57-4.35c-12.42-7.31-24.88-14.7-36.93-21.85l-13.74-8.15a15.45,15.45,0,0,0-1.53-.75h0l-.06,0-.91-.41Zm288.36,94.39h0a25.93,25.93,0,0,0,.34,2.91c.33-.17.62-.3.87-.42l0,0c.44-.21.78-.37,1.12-.56l12.45-7.35,1.53-.9c12.22-7.22,24.86-14.68,37.36-22,1.9-1.12,2.29-2.51,2.31-4.54.12-13.52.28-27.27.44-40.57v-.21l0-2.63c0-4.81.11-9.79.17-14.66,0-.63,0-1.28-.09-2v0c0-.37-.06-.76-.08-1.2a13.8,13.8,0,0,0-1.55.6c-17.17,10.17-34.76,20.53-52.29,30.8a3.94,3.94,0,0,0-2,4c-.21,18.77-.43,38.56-.64,58.81h0ZM40.82,352.49h0c0,.4-.06.78-.09,1.08a17.3,17.3,0,0,0-.1,1.76c0,5.78.1,11.67.16,17.36v1.46c.12,13.08.25,26.6.32,40.07a4.48,4.48,0,0,0,2.55,4.36C61.12,428.9,78.07,438.93,94,448.39c.53.31,1.09.56,1.74.86l0,0,1.08.51c0-.39.07-.75.09-1.06v0h0c.06-.65.11-1.21.11-1.76,0-5.26-.11-10.73-.15-15.45v0c-.13-14.22-.27-28.93-.35-43.39a4.49,4.49,0,0,0-.61-2.58,4.39,4.39,0,0,0-2-1.78c-12.46-7.33-25.1-14.83-37.33-22.09l-.19-.11-.8-.48-12.35-7.32c-.5-.27-1-.52-1.53-.74l0,0Zm692.79.22h0c0,.46,0,.88-.07,1.34,0,.91-.08,1.7-.08,2.48,0,5.58.1,11.38.15,16.5h0c.13,13.27.26,27,.29,40.5a5.62,5.62,0,0,0,3.23,5.5c11.48,6.7,23.08,13.58,34.29,20.24l.06,0,14.4,8.54c.81.48,1.66.94,2.74,1.54l.11.05.57.32c0-.33.07-.62.1-.88v-.1a10.85,10.85,0,0,0,.13-1.5c0-5.53-.1-11.15-.15-16.58v-.48c-.13-13.94-.27-28.35-.33-42.53,0-2.05-.92-3-2.6-4l-42-24.87-1.8-1.07-6.5-3.85c-.61-.34-1.24-.65-1.88-.93h0l-.06,0Zm-461.83,0c0,.51,0,1-.06,1.42v0c0,.89-.07,1.65-.06,2.42,0,5.47.1,11.25.14,15.89v.1c.13,13.44.26,27.33.3,41a5.62,5.62,0,0,0,3.26,5.48c12.25,7.14,24.63,14.5,36.61,21.6l.08,0,.18.1,11.89,7.05c.72.43,1.44.83,2.36,1.33h0l1,.57c0-.4.06-.75.1-1.08h0c.06-.6.1-1.2.11-1.81-.05-5.28-.1-10.65-.14-15.85v-.47c-.14-13.92-.27-28.33-.33-42.53a4.51,4.51,0,0,0-2.63-4.33L274.3,353.84a26.23,26.23,0,0,0-2.52-1.18Zm1038.71.15h0c.14,15.21.27,30.49.41,45.27l0,3.6.14,15.37,9.88,5.87c5.83,3.47,11.86,7.06,17.86,10.57,3,1.74,5.89,3.5,8.74,5.21h0c6.12,3.68,12.46,7.49,18.92,11a7.41,7.41,0,0,0,.32-1.23q-.06-7.76-.13-15.51v-.07c-.12-14.92-.25-30.35-.33-45.53a3.58,3.58,0,0,0-2.27-3.38c-16.48-9.78-33.63-19.94-51-30.2a17.25,17.25,0,0,0-2.6-1Zm-923.35,0h0c.11,12.18.22,24.38.33,36.17.08,9.33.17,18.64.25,28l.22.13,3.63,2.15c15.84,9.4,32.22,19.12,48.67,28.86l1,.57h0l.07,0c.52.3,1.06.6,1.6.89h0c0-.29.06-.53.08-.74v-.07h0a9.53,9.53,0,0,0,.09-1.19c-.05-6.15-.11-12.42-.17-18.47v-.76c-.12-12.65-.25-27-.34-40.77a3.89,3.89,0,0,0-.56-2.23,3.84,3.84,0,0,0-1.72-1.54c-10.38-6.1-20.93-12.35-31.13-18.4l-.43-.25c-5.93-3.51-12.65-7.5-19.12-11.32a12.15,12.15,0,0,0-1.95-.86l-.27-.1h0l-.25-.08Zm575.49-.35h0l-1,.46h0a13.83,13.83,0,0,0-1.6.77L937.5,367v.2c-9.14,5.4-18.29,10.78-27.2,16a5.67,5.67,0,0,0-3.2,5.56c-.08,13-.23,26.23-.38,39v.42c-.07,5.86-.14,11.93-.2,17.92,0,.74,0,1.5.1,2.46v0c0,.33,0,.68.06,1.06l.53-.26c.6-.28,1.07-.51,1.5-.74.7-.4,1.24-.7,1.77-1h0c9.39-5.54,18.36-10.84,26.67-15.73v0c7.52-4.45,15.17-8.94,22.75-13.35a4.63,4.63,0,0,0,1.89-1.88,4.5,4.5,0,0,0,.51-2.62c.12-14.24.29-28.72.45-42.71.06-5.57.12-10.6.18-15.78a15.69,15.69,0,0,0-.15-1.94h0v-.06c0-.33-.08-.67-.11-1.05Zm-459.9.15h0c0,.31-.05.59-.07.86h0a15.69,15.69,0,0,0-.1,1.81c0,5.88.1,11.86.16,17.64v1.19c.11,12.44.25,26.55.31,40.06a4.46,4.46,0,0,0,2.55,4.36c17.38,10.28,34.33,20.3,50.37,29.81.54.31,1.12.59,1.8.9l.69.32c0-.27,0-.52.07-.76v-.07a17.75,17.75,0,0,0,.11-1.86c0-5.15-.1-10.57-.14-14.93-.14-14.38-.28-29.26-.36-43.95a4.41,4.41,0,0,0-.6-2.58,4.5,4.5,0,0,0-2-1.78c-12-7.06-24.2-14.29-36-21.28l-.49-.29-14.2-8.43c-.53-.29-1.07-.55-1.63-.79l-.54-.24Zm-58.05,93.21c0,.77,0,1.54.06,2.53v.16c0,.33,0,.68,0,1.06l.66-.31.05,0c.68-.33,1.22-.58,1.71-.87l11.93-7,.28-.17c12.62-7.45,25.67-15.15,38.54-22.66a4.57,4.57,0,0,0,1.89-1.88,4.49,4.49,0,0,0,.51-2.62c.11-13.75.28-27.73.43-41.25v-.61c.07-5.92.13-11.26.19-16.63a28.14,28.14,0,0,0-.26-2.9,24.76,24.76,0,0,0-2.27,1.08l-10.8,6.36-1.23.73c-10.89,6.42-22.15,13.07-33.38,19.61l-1.66,1-.26.15L448.6,383a5.9,5.9,0,0,0-3.33,5.81c-.06,13.67-.23,27.57-.4,41v1c-.06,4.91-.12,10-.18,15Zm402.55-93h0a8.53,8.53,0,0,0-1.18.47c-17.63,10.44-35.23,20.8-52.29,30.8a4,4,0,0,0-2,4c-.2,18.08-.41,37.32-.64,58.81a19.2,19.2,0,0,0,.31,2.72l.09,0,.46-.2c.42-.2.8-.38,1.13-.57l12.21-7.2,1.15-.69c12.38-7.31,25.19-14.87,38-22.33l.25-.16h0l0,0,.07-.05a2.8,2.8,0,0,0,.33-.24h0l0,0,.05,0a4.69,4.69,0,0,0,1.53-4c.12-13.55.28-27.34.44-40.68v-.18c.06-5.49.13-11.37.2-17.2,0-.65,0-1.3-.09-2.07v0c0-.31,0-.64-.07-1Zm346.11-.24-.66.3c-.33.14-.65.29-1,.46L1178,361.47l-.77.45,0,0c-12.15,7.18-24.72,14.6-37.11,21.83-1.89,1.1-2.26,2.45-2.28,4.56-.11,11.54-.25,23.29-.38,34.64v.49c-.09,7.26-.18,15-.26,22.57,0,.75,0,1.48.1,2.34v0c0,.37,0,.76.08,1.2.76-.3,1.5-.63,2.23-1,16.82-9.94,34.09-20.1,51.34-30.21a4,4,0,0,0,2.29-3.83c.1-11.69.23-23.58.36-35.08V379c.09-7.73.18-15.95.26-24a12.44,12.44,0,0,0-.45-2.42Zm-807.91.2h0l-.37.13h0c-.32.12-.54.2-.72.29l-.07,0h0c-17.53,10.38-35.12,20.74-52.28,30.79a4,4,0,0,0-2,4c-.23,20.62-.44,39.85-.64,58.81a22.34,22.34,0,0,0,.32,2.7,13.22,13.22,0,0,0,1.37-.65c17.36-10.27,34.74-20.5,51.66-30.4a4.22,4.22,0,0,0,2.31-4.16c.11-13.33.27-26.88.42-40v-1.16c.07-5.67.14-11.53.2-17.29,0-.69,0-1.39-.1-2.2v-.11c0-.25,0-.5-.06-.78Zm463.51.14h0c.15,17,.31,34,.46,50.52l0,3.55.09,10.05c3.13,1.85,6.3,3.74,9.37,5.57l.31.18c5.89,3.5,12,7.13,18,10.69,3,1.74,5.92,3.51,8.78,5.23h0c6,3.6,12.23,7.34,18.56,10.78a5,5,0,0,0,.27-1.06l-.12-15.37v-.22c-.13-14.92-.25-30.34-.33-45.52a3.6,3.6,0,0,0-2.28-3.38c-16.78-10-33.94-20.12-51-30.2a11.62,11.62,0,0,0-2.22-.83Zm-579.16-.31h0l-.54.25h0a8.8,8.8,0,0,0-.8.38l-.63.36-.06,0h0l-.38.22-15.1,8.91c-11.43,6.8-23.12,13.68-34.72,20.43a5.74,5.74,0,0,0-2.43,2.3,5.67,5.67,0,0,0-.7,3.27c-.08,13.7-.24,27.63-.41,41.1v.16c-.06,5.45-.12,10.37-.17,15.34,0,.83,0,1.64,0,2.67,0,.41,0,.87,0,1.4l.5-.24.17-.07a14.63,14.63,0,0,0,1.43-.71l14.57-8.58,1.79-1.06c11.31-6.66,23-13.56,34.67-20.37a4.51,4.51,0,0,0,2.45-4.47c.1-12.82.25-25.85.4-38.45v-.88c.07-6.27.14-12.75.21-19.11a25.59,25.59,0,0,0-.28-2.91Zm461.68.11-.27.12h0c-.33.15-.67.31-1,.49l-14.41,8.5-.26.15c-12.08,7.14-24.57,14.51-37,21.76-1.89,1.1-2.26,2.45-2.28,4.55-.12,12.16-.26,24.61-.39,35.59-.09,7.23-.17,14.71-.25,22.12,0,.73,0,1.46.09,2.3v.05c0,.33.05.68.07,1.05a18.49,18.49,0,0,0,1.87-.85c17.21-10.17,34.48-20.33,51.34-30.21a5,5,0,0,0,1.52-1.33l.07-.09,0,0a1.27,1.27,0,0,0,.13-.19,4.23,4.23,0,0,0,.54-2.2c.1-11.55.24-23.31.36-34.67v-.69c.09-7.93.18-16.12.26-24.18a10.33,10.33,0,0,0-.41-2.26ZM618,353.21h0c.2,21,.39,41.92.59,63.83L648,434.47,662.38,443A116,116,0,0,0,674,449.07q-.1-10.79-.19-21.34v-.6c-.13-14.7-.25-28-.37-41.57-1.32-1-4.3-2.89-8.85-5.68l-12.67-7.5v-.1c-14.28-8.44-30.87-17.89-33.9-19.07Zm-461.92-.13c.22,23.66.41,44.58.59,64l35.35,21c10.74,6.17,18.29,10.28,20.19,11-.21-21.7-.41-43.1-.59-63.63-.61-.43-1.38-.95-2.23-1.5L190,372.37v-.31c-15.35-9.07-32.23-18.65-33.89-19ZM905.9,320a6.28,6.28,0,0,0-2.37.87l-50.65,28.46c-.58.34-1.12.72-1.74,1.16-.35.25-.7.5-1.1.77l.9.64h0a11.78,11.78,0,0,0,1.19.8l15,8.49.13.07c11.93,6.74,24.26,13.7,36.36,20.61a5.25,5.25,0,0,0,1.22.51,3.94,3.94,0,0,0,.9.1,4.15,4.15,0,0,0,.79-.08l.13,0a4.61,4.61,0,0,0,.63-.2,7.6,7.6,0,0,0,1-.49l28.76-16.16L959.37,353a17.58,17.58,0,0,0,1.53-1c.28-.21.68-.49,1.1-.78l-.88-.58-.07-.05c-.64-.43-1.2-.8-1.78-1.12L937.11,337v.1c-9.61-5.42-19.32-10.93-28.88-16.4a5.53,5.53,0,0,0-1.2-.5h0A4.93,4.93,0,0,0,906,320Zm-461.77,0a6.47,6.47,0,0,0-2.63.89l-1.55.87-1.47.83c-15.88,8.94-31.6,17.77-46.7,26.26-.2.1-.39.21-.6.34l-.44.24c-.54.33-1,.68-1.63,1.1l-.11.08-.8.56.8.56,0,0c.57.4,1.07.75,1.57,1l13.93,7.87.2.11c12.15,6.87,24.72,14,37,21a4.72,4.72,0,0,0,2.25.7,5.42,5.42,0,0,0,2.47-.8l51-28.66a16.8,16.8,0,0,0,1.52-1h0l1.1-.77-.86-.57-.08-.06h0c-.64-.43-1.2-.8-1.77-1.12l-14.06-7.95-.09-.05-.33-.18c-11.83-6.69-24.06-13.6-36.05-20.46h0a5.46,5.46,0,0,0-2.7-.81Zm577.12-.16a5.4,5.4,0,0,0-3,.91c-11.89,6.78-24,13.59-35.77,20.18l-.25.14-1,.54-13.66,7.68a25.63,25.63,0,0,0-2.43,1.82l.79.55,0,0a12.49,12.49,0,0,0,1.29.85l11,6.23,2.1,1.19c12.58,7.11,25.6,14.46,38.4,21.78a4.65,4.65,0,0,0,2.32.69,6.35,6.35,0,0,0,3.1-1.05L1074,353.5l1.67-1h0l.12-.07c.55-.32,1.17-.69,1.91-1.11-.57-.37-1-.69-1.45-1h0c-.6-.4-1.11-.75-1.62-1-16.81-9.44-33.72-19-50.25-28.45a5.34,5.34,0,0,0-3.09-1Zm-923.48,0a5.43,5.43,0,0,0-3,.91C82.87,327.59,70.74,334.4,59,341l-.15.08-.71.4-14,7.87a28.47,28.47,0,0,0-2.43,1.82l.83.59h0a13.52,13.52,0,0,0,1.28.85L56.91,360l.21.12c12.54,7.09,25.51,14.42,38.23,21.69a4.66,4.66,0,0,0,2.33.69,6.52,6.52,0,0,0,3.1-1.05c17-9.57,33.72-19,49.71-27.95l1.71-1,0,0,2-1.14-1.47-1h0c-.63-.42-1.12-.75-1.62-1-16.8-9.43-33.71-19-50.25-28.46a5.45,5.45,0,0,0-3.1-1Zm1039,.09a5,5,0,0,0-2.94.93c-12.24,7-24.73,14-36.8,20.76l0,0-13.83,7.77a28.24,28.24,0,0,0-2.51,1.83c.27.17.53.33.77.5l.25.16c.76.49,1.4.91,2.08,1.29l13.31,7.52c12,6.77,24.43,13.78,36.61,20.77a5.64,5.64,0,0,0,6.41-.1c12.19-6.93,24.63-13.9,36.67-20.64l.32-.18.7-.4,11.69-6.55c.73-.41,1.47-.83,2.32-1.33l.17-.1,1.27-.73-1.3-.87c-.71-.48-1.23-.83-1.77-1.14l-15-8.49-.19-.11-.12-.07c-11.57-6.53-23.52-13.28-35.24-20a5,5,0,0,0-2.82-.85Zm-577.2-.06a6,6,0,0,0-2.86.88c-11.87,6.76-23.91,13.52-35.55,20.05l-15.1,8.48a25.18,25.18,0,0,0-2.42,1.83l.78.54,0,0h0c.42.3.85.59,1.29.85L518.88,360h0c12.6,7.11,25.62,14.47,38.39,21.78a4.91,4.91,0,0,0,2.07.67,6.52,6.52,0,0,0,3-1L612,353.49l1.53-.88.14-.08,2-1.19-1.47-1h0c-.61-.41-1.1-.74-1.61-1-16.92-9.5-33.83-19.07-50.24-28.45a6.52,6.52,0,0,0-2.87-1ZM190.39,370.2h0c7,3.95,14.05,7.93,20.87,11.82l.45.18a5,5,0,0,0,1.57.26,4.74,4.74,0,0,0,1.3-.18,8.92,8.92,0,0,0,1.08-.52l51-28.66a31.22,31.22,0,0,0,2.56-1.83l-1-.63-.08-.05h0c-.74-.49-1.37-.91-2-1.28-4.9-2.78-9.89-5.59-14.72-8.32l-.4-.22c-11.38-6.43-23.16-13.08-34.81-19.75a6.31,6.31,0,0,0-3-.95,6.58,6.58,0,0,0-3,1c-5.53,3.15-11.34,6.42-16.46,9.3l-3.35,1.88h0L159.7,349.49a28.14,28.14,0,0,0-2.51,1.82l1,.63c.77.5,1.44.94,2.12,1.32,9.48,5.35,19.32,10.92,30.1,17v-.08ZM675,320a6.37,6.37,0,0,0-2.68.9c-12,6.85-24.34,13.76-36.23,20.44l-.13.08-14.29,8a28.24,28.24,0,0,0-2.51,1.83l.8.52.19.12h0c.76.5,1.42.92,2.09,1.3l12.25,6.91,1,.56c12,6.8,24.48,13.82,36.68,20.82a6,6,0,0,0,3.12.9h0a7,7,0,0,0,2.74-.93l.56-.31,6.77-3.81c14-7.86,28.18-15.84,42.22-23.72.35-.19.75-.42,1.17-.67a15.75,15.75,0,0,0,1.51-1.06l.81-.61-1-.7c-.72-.48-1.23-.83-1.77-1.13l-14-7.9-1-.58-.07,0c-11.65-6.59-23.7-13.39-35.52-20.16a6.79,6.79,0,0,0-1.41-.62h0A4.9,4.9,0,0,0,675,320Zm577.31-.22a4,4,0,0,0-2.4.8l-51.62,29a25.81,25.81,0,0,0-2.18,1.59l1.2.77h0c.7.45,1.29.84,1.91,1.19l14.1,8h0c11.63,6.56,23.66,13.35,35.44,20.13a5.81,5.81,0,0,0,3.37,1.06,5.68,5.68,0,0,0,3.36-1.06c12.25-7,24.71-14,36.76-20.75l.47-.26,12.09-6.79,2.78-1.6.27-.16.57-.33a18.78,18.78,0,0,0-1.66-1.28c-17.47-9.86-35.12-19.86-52.45-29.73h0a4,4,0,0,0-2-.56Zm-923.74.1a6,6,0,0,0-2.35.8l-50.54,28.4-.95.54a13.48,13.48,0,0,0-1.39,1l-.59.44c.3.22.55.4.75.56h0a10.86,10.86,0,0,0,1.11.76c17.17,9.66,34.6,19.54,51.82,29.35.18.09.37.17.55.24a5.29,5.29,0,0,0,2.92.12,7.78,7.78,0,0,0,.93-.42l51.59-29.07a23,23,0,0,0,2.09-1.59l-1.06-.69c-.51-.34-1-.64-1.42-.9-4.72-2.68-9.53-5.39-14.18-8l-.16-.09c-12-6.75-24.34-13.74-36.51-20.7a5.06,5.06,0,0,0-2.62-.74Zm462,0-.55,0a6.35,6.35,0,0,0-1.67.67l-51.61,29a24.33,24.33,0,0,0-2.19,1.58c.45.28.83.53,1.22.79.69.45,1.28.83,1.9,1.18l14,7.9,0,0c11.67,6.58,23.74,13.4,35.55,20.19a6.6,6.6,0,0,0,3.34,1,6.77,6.77,0,0,0,2.77-.88l10.84-6.11c10.94-6.19,22.37-12.63,34-19.14l4.51-2.54,1.49-.84.25-.15a17.48,17.48,0,0,0,1.9-1.43,13.7,13.7,0,0,0-1.42-1.09c-17.2-9.7-34.84-19.7-52.45-29.72a4.38,4.38,0,0,0-.9-.37,3.85,3.85,0,0,0-1-.11ZM1253,253.23q.16,17.4.32,34.79l0,2.21q.14,13.5.25,27l41.87,24.8,2.16,1.28,11.75,7-.16-17.62,0-3.91c-.13-14.8-.26-28.77-.39-43v0c-3.14-2.35-17.27-10.83-29.08-17.72-12.23-7.13-25.24-14.48-26.71-14.79Zm-232.25-.5h0c-.45.23-.85.43-1.22.6l0,0c-.6.29-1.17.56-1.69.87l-14.53,8.58-.15.09c-11.69,6.91-23.77,14.05-35.69,21a4.82,4.82,0,0,0-2,2,4.75,4.75,0,0,0-.53,2.79c-.1,12.9-.25,26-.4,38.68-.06,5.87-.14,12.53-.21,19,0,.7.05,1.4.12,2.27,0,.4.07.89.1,1.45l1.52-.88c.71-.41,1.38-.79,2-1.18l14.48-8.54c11.32-6.69,23-13.61,34.63-20.37a5.6,5.6,0,0,0,3.17-5.54c.08-13.29.24-26.8.4-39.86v-.17c.07-5.25.14-11.2.2-16.93,0-.79,0-1.56-.08-2.46,0-.5-.06-.94-.08-1.45Zm-923.47,0h0c-.46.23-.86.43-1.27.62-.64.3-1.18.57-1.7.87l-14.24,8.41-.16.09c-11.77,7-23.95,14.16-36,21.17a4.82,4.82,0,0,0-2,2,4.75,4.75,0,0,0-.53,2.79c-.1,12.73-.25,25.68-.39,38.2v.47c-.07,6.24-.15,12.7-.22,19,0,.69.05,1.36.12,2.22h0v0c0,.42.07.91.1,1.45.47-.28.9-.53,1.3-.75l.24-.15,2-1.15,13.57-8,.7-.41C70.2,332.92,82,326,93.67,319.15a5.62,5.62,0,0,0,2.45-2.28,5.56,5.56,0,0,0,.72-3.26c.08-13.34.24-26.88.4-40v-.9c.06-5.27.13-10.73.19-16.09,0-.79,0-1.57-.09-2.48v0c0-.45,0-.9-.08-1.41Zm1154.12.05h0l-1.1.55h0c-.55.27-1,.5-1.47.76L1236,261.66l-.06,0c-12.19,7.2-24.8,14.64-37.25,21.87a5.37,5.37,0,0,0-2.29,2.21,5.27,5.27,0,0,0-.63,3.13c-.1,14-.27,28.16-.43,41.88l0,1.58c-.06,4.57-.11,9.29-.16,13.92h0c0,.68,0,1.39.08,2.14v.08c0,.46.06,1,.08,1.57l1-.43h0a10.22,10.22,0,0,0,1.25-.6c16.71-9.9,34-20.09,51.36-30.28a4.22,4.22,0,0,0,2.3-4.18c.11-12.1.25-24.4.38-36.29v-.42c.09-8,.18-15.21.25-22.53a16.22,16.22,0,0,0-.43-2.57ZM789.51,253h0l-.73.36,0,0c-.56.27-1,.51-1.49.77l-10.68,6.3-1.77,1.05c-12.31,7.27-25,14.78-37.66,22.12a5.31,5.31,0,0,0-2.92,5.33c-.1,14-.27,28.17-.44,41.88-.06,5.25-.12,10.38-.18,15.5,0,.73,0,1.45.09,2.36h0c0,.41,0,.81.06,1.27l.33-.15.4-.2c.68-.33,1.26-.62,1.79-.91l17.31-10.21,12.1-7.14c7.19-4.26,14.35-8.49,21.29-12.56a5.62,5.62,0,0,0,1-.71c.11-.11.21-.22.31-.34a3.19,3.19,0,0,0,.35-.47l0,0a2.63,2.63,0,0,0,.2-.33,5.42,5.42,0,0,0,.44-2.28c.12-12.42.26-25.37.39-36.8v-.41c.09-7.22.17-14.69.25-22a12.83,12.83,0,0,0-.4-2.39Zm117.56,0h0c0,.32-.05.62-.08.91-.06.75-.12,1.41-.12,2,.06,6.63.12,13.4.17,19.23.12,12.81.24,26.05.32,39.23a4.47,4.47,0,0,0,2.52,4.39l27.62,16.33v.07l22.09,13.1c.58.34,1.18.64,1.88,1h0l1.32.65a13.61,13.61,0,0,0,.25-1.68c0-6.4-.1-12.87-.15-18.43v-.34c-.12-13.74-.24-28-.32-41.93a3.64,3.64,0,0,0-2.18-3.46l-23.26-13.77v.1l-26.9-15.92c-.7-.42-1.49-.81-2.33-1.23h0l-.12-.06-.12,0-.56-.17ZM502.72,346.4h0c0,.69,0,1.36.11,2.21v.07c0,.36.06.78.09,1.22l.91-.52.16-.09.07,0,2-1.19,14.67-8.65.08-.05c11.24-6.64,22.87-13.51,34.36-20.21a5.6,5.6,0,0,0,3.17-5.54c.08-13,.24-26.3.39-39.12v0c.08-6,.15-11.91.21-17.8,0-.8,0-1.59-.09-2.5q0-.57-.06-1.23l-.56.27-.25.12h0c-.68.32-1.26.6-1.79.91L542,262.64c-11.78,7-24,14.16-36.11,21.25-2.09,1.23-2.51,2.69-2.53,4.8-.1,13-.26,26.56-.4,38.51h0c-.07,6.29-.15,12.8-.21,19.2ZM212.31,252.73h0l-.47.22-2.32,1.33L204.76,257c-14.76,8.7-29.91,17.59-45,26.42-1.86,1.08-2.94,2.18-3,4.57-.1,13.3-.25,26.83-.4,39.92h0c-.07,6-.14,12.72-.21,19.3a14.85,14.85,0,0,0,.44,2.57c.31-.16.59-.3.92-.45h0c.61-.3,1.14-.56,1.64-.85L190,330.31v-.18c6.31-3.73,12.9-7.61,19.6-11.52,1.92-1.13,2.3-2.52,2.32-4.54.11-12.14.25-24.31.39-36.08.08-7.84.16-14.9.24-22a17.67,17.67,0,0,0-.14-2.06c0-.35-.08-.75-.12-1.17Zm923.88-.28h0l-3,1.72c-1.8,1-3.36,1.92-5,2.86-14.75,8.7-29.9,17.59-45,26.42-1.85,1.08-2.93,2.18-3,4.57-.09,13.11-.25,26.45-.4,39.35v.26l0,1.18c-.07,6.05-.14,12.3-.2,18.44a15.94,15.94,0,0,0,.44,2.56l.9-.44,0,0c.6-.29,1.12-.54,1.62-.84l12.89-7.61.22-.13c12.22-7.21,24.86-14.67,37.32-21.94a4.85,4.85,0,0,0,2.63-4.74c.1-14.15.26-28.52.42-42.42v-.18c.05-4.38.11-9.57.17-14.78,0-.83,0-1.64,0-2.67V254c0-.45,0-1,0-1.53Zm1.57-.06h0c-.06.44-.11.76-.15,1a6.55,6.55,0,0,0-.1.89c0,4.9.09,9.86.13,14.71v1.56c.13,14.51.27,29.53.35,44.47a3.61,3.61,0,0,0,2.17,3.45c18.58,11,35.37,21,51.31,30.39a15.06,15.06,0,0,0,2.51.91c-.22-23.75-.43-46.91-.6-64.43l-23.8-14.11-4.69-2.78-27.14-16.08Zm-809.82.44-.8.34-1.31.67-15.28,9-.17.1c-11.66,6.87-23.71,14-35.6,20.92a5.2,5.2,0,0,0-.92.7,4.35,4.35,0,0,0-.5.55,3.62,3.62,0,0,0-.22.32,5.29,5.29,0,0,0-.29.52,6.56,6.56,0,0,0-.41,2.44c-.11,11.57-.24,23.33-.37,34.71v0c-.09,7.75-.19,15.77-.27,23.73a23.62,23.62,0,0,0,.33,2.9l.6-.3.17-.08c.67-.33,1.25-.61,1.79-.93l15-8.84c11.5-6.8,23.39-13.83,35.12-20.67,2.23-1.31,2.67-2.85,2.69-5.09.11-13.4.27-27,.43-40.19v-.87c.06-5.35.13-10.88.19-16.31,0-.72,0-1.46-.06-2.31,0-.33,0-.67,0-1l0-.14v0c0-.05,0-.1,0-.17Zm117.21.14h0c0,.23,0,.44,0,.64v.16c0,.79-.07,1.41-.06,2,0,4.54.08,9.16.12,13.64l0,2.07v.16c.14,14,.27,28.4.33,42.6a4.8,4.8,0,0,0,.69,2.74,4.73,4.73,0,0,0,2.12,1.86c12,7,24.1,14.22,35.84,21.18l.1.06L498,348.28c.59.35,1.23.66,2,1l.9.44a15.25,15.25,0,0,0,.22-1.51c-.05-5.66-.1-11.39-.15-17.26v-.21c-.12-14.17-.25-28.82-.33-43.23a3.67,3.67,0,0,0-2.18-3.46c-17-10.11-34.3-20.32-51.27-30.36a9.88,9.88,0,0,0-2-.74Zm231-.38h0a16.12,16.12,0,0,0-.22,1.7c0,6.17.11,12.44.15,17.22v0c.12,14.25.25,29,.33,43.49a3.62,3.62,0,0,0,2.17,3.44l51.32,30.4a11.43,11.43,0,0,0,2.14.79l-.22-23.59c-.13-13.64-.25-27.18-.38-40.73l-.9-.53c-15.75-9.34-35.37-21-54.4-32.23Zm-1.95.09h0l-2.1,1.21c-2,1.14-3.71,2.12-5.45,3.15-15.06,8.88-30.22,17.76-45,26.41-1.86,1.09-2.94,2.18-3,4.57-.09,12.87-.24,26-.38,38.61v.51c-.07,6.25-.15,13.33-.22,20.11a13.08,13.08,0,0,0,.4,2.4l.34-.17.18-.09c.65-.31,1.21-.58,1.71-.88l11.83-7,1.75-1c12-7.11,24.49-14.46,36.85-21.67a4.84,4.84,0,0,0,2-2,4.78,4.78,0,0,0,.59-2.77c.1-14.57.28-29.75.44-43.14V270c0-4.38.1-8.88.15-13.31,0-.85,0-1.7-.05-2.78v-.69l0-.22V253h0l0-.28ZM849,346.43h0c0,.62,0,1.24.07,2,0,.39,0,.77.06,1.2l.42-.19.1,0c.54-.25,1-.44,1.35-.64,16.74-9.92,34-20.06,51.27-30.16a4.51,4.51,0,0,0,2.38-4.51c.1-12.06.24-24.33.38-36.2v-.53c.08-7.11.17-14.47.24-21.7a19,19,0,0,0-.3-2.82l-.5.24-.11.05h0c-.5.24-.92.44-1.32.67l-13.3,7.85-.08.05C877.31,269,864.57,276.54,852,283.88a4.52,4.52,0,0,0-2.4,4.48c-.12,13.78-.28,27.79-.44,41.33v.42l0,1.87c0,4.74-.11,9.65-.17,14.46ZM214.37,252.55h0a15.79,15.79,0,0,0-.21,1.7c.05,5.82.1,11.85.15,17.05.12,14.28.25,29.05.33,43.69a3.62,3.62,0,0,0,2.17,3.45l51.31,30.38a11.1,11.1,0,0,0,2.15.79c-.26-27.67-.44-46.91-.6-64.3l-13.27-7.86-42-24.91Zm228.88.21-.57.27-.09.05h0l-1.14.56-1.69,1-9.68,5.72-1.94,1.15h0c-12.16,7.19-24.72,14.62-37.14,21.86a5.59,5.59,0,0,0-3.16,5.54c-.08,13.26-.24,26.74-.4,39.78v.43c-.07,5.49-.14,11.17-.2,16.76,0,.7,0,1.4,0,2.27v.15c0,.39,0,.82,0,1.3a20.15,20.15,0,0,0,2.05-1l12.58-7.41,1.39-.82c11.51-6.79,24.56-14.48,37.07-21.77,2.05-1.2,2.46-2.68,2.48-4.83.1-12.07.24-24.18.37-35.9v-.81c.08-6.89.17-14,.24-21a20.5,20.5,0,0,0-.13-2.24v0c0-.34-.05-.69-.08-1.08Zm578.84-.15h0c.12,13.74.25,27.72.37,40.06v1.09c.07,7.81.14,15.59.21,23.4,19.63,11.65,37,21.91,52.93,31.38.5.27,1,.52,1.52.75h0l.44.2h.06a.66.66,0,0,0,.2-.06h0l.06,0,.43-.28,0-.58v0c0-.46.06-1,0-1.5l-.12-12.4v-1.08c-.14-14.88-.29-30.26-.36-45.41a4.47,4.47,0,0,0-2.63-4.3c-10.45-6.15-21-12.44-31.31-18.52l-.11-.07-18.29-10.83c-.6-.36-1.23-.67-2-1.07h0c-.44-.22-.92-.45-1.47-.74Zm-923.47,0h0c.11,12.48.22,24.89.33,36.89l0,1.91,0,5.8.18,20c18.6,11,35.91,21.3,52.93,31.38a15.86,15.86,0,0,0,1.55.76l.13.06.32.15h.05a.65.65,0,0,0,.21-.06h0l.05,0a2.79,2.79,0,0,0,.42-.28c0-.2,0-.4,0-.58,0-.5.06-1,.05-1.53,0-4.49-.08-9.07-.12-13.5V332c-.14-14.38-.28-29.24-.35-43.87a4.48,4.48,0,0,0-2.63-4.3c-10.35-6.1-20.79-12.28-30.87-18.26l-18.84-11.16c-.59-.36-1.22-.67-2-1.06h0l-1.48-.74Zm461.92.19h0c.13,14.45.26,28.78.38,42.63v.76l0,3.47q.09,8.74.16,17.5c18.84,11.18,36.15,21.44,52.94,31.38a18.25,18.25,0,0,0,1.89.91l.06,0a3.83,3.83,0,0,0,.42-.28c0-.21,0-.44,0-.64,0-.45,0-1,0-1.47,0-4.31-.08-8.94-.13-14.17v-.38c-.14-14.53-.28-29.56-.35-44.34a4.48,4.48,0,0,0-2.62-4.3c-10.3-6.06-20.75-12.25-30.85-18.25l-.23-.13-.17-.1-18.47-10.94c-.59-.36-1.24-.68-2.05-1.08l-1.1-.55Zm230.91.56h0q.28,31.88.58,63.69c.52.37,1.22.85,2.08,1.41l17.59,10.41L816,331.4l20.36,12.06a113.59,113.59,0,0,0,11.1,5.8q-.09-11.61-.2-23l0-2.26c-.1-11.28-.23-24.65-.35-38.28-1.3-1-4.68-3.13-9.79-6.25L814.32,266c-12.49-7.23-20.83-11.84-22.88-12.65Zm-461.8-.09c.1,10.69.19,21.19.28,31.56l0,4.69q.13,13.77.25,27.34c1.35,1,4,2.72,8,5.18l27.51,16.29c10.56,6.07,18,10.13,19.88,10.85-.21-22.2-.41-43.61-.59-63.62-.55-.4-1.35-.94-2.36-1.6l-12.13-7.19-2.79-1.65-26.06-15.45c-4.81-2.71-10.8-6-12.07-6.4ZM155.9,220.09a4.18,4.18,0,0,0-2.48.79l-5.87,3.3-2.73,1.53-42.67,24a24.06,24.06,0,0,0-2.38,1.77l.94.63h0a14,14,0,0,0,1.2.78l12.88,7.28.6.34c12.36,7,25.14,14.19,37.7,21.36a4.8,4.8,0,0,0,5.42-.1c11.35-6.4,21.66-12.2,31.5-17.72v-.18c6-3.42,12.24-6.9,18.39-10.34l2.17-1.26,1.3-.75,0,0-1.13-.76,0,0h0c-.55-.38-1-.68-1.44-.93l-.11-.06L190,238.88v-.12c-10.64-6-21.35-12-31.83-18A4.13,4.13,0,0,0,155.9,220.09Zm923.48,0a4.23,4.23,0,0,0-2.48.79l-51.28,28.84a24.06,24.06,0,0,0-2.38,1.77c.36.23.67.44.94.63h0c.46.31.82.56,1.21.78l13.54,7.65c12.33,7,25.07,14.16,37.64,21.33a4.75,4.75,0,0,0,2.63.79,4.82,4.82,0,0,0,2.79-.89l50.62-28.49c.54-.29,1.07-.65,1.68-1.06l1.15-.76-.87-.64a12.9,12.9,0,0,0-1.08-.74c-17.16-9.66-34.6-19.53-51.83-29.34a4.24,4.24,0,0,0-2.3-.68Zm227.7,61.62h0a5.65,5.65,0,0,0,3.14,1,5.58,5.58,0,0,0,3.27-1c12.56-7.13,25.25-14.24,37.53-21.12l11.86-6.64,1.64-1,.36-.21.79-.45,1-.56-1.17-.79-.08-.05h0a19,19,0,0,0-1.79-1.15l-15.23-8.62-.28-.15c-11.5-6.5-23.4-13.21-35.06-19.89a5.07,5.07,0,0,0-5.75.07c-11.3,6.42-22.82,12.89-34,19.15l-.34.19-16.37,9.21a29.7,29.7,0,0,0-2.52,1.81c.43.27.8.52,1.16.76l0,0c.69.45,1.28.84,1.9,1.19,4.62,2.62,9.27,5.24,14.43,8.15l.19.11c11.59,6.53,23.57,13.3,35.31,20h0Zm-689.5-61.6a5.7,5.7,0,0,0-2.23.77l-51.28,28.84a23.93,23.93,0,0,0-2.37,1.77l.9.6,0,0c.45.31.83.58,1.23.8l12.35,7,.86.48c12.43,7,25.28,14.27,38,21.52a5.16,5.16,0,0,0,2.53.76,6.15,6.15,0,0,0,2.52-.86c17.19-9.68,34.22-19.27,50.62-28.49.55-.3,1.06-.64,1.71-1.08l.06,0,1.06-.7-.87-.63a13,13,0,0,0-1.08-.75c-17.24-9.7-34.68-19.58-51.83-29.34h0a4.36,4.36,0,0,0-2.17-.64Zm-231.08.13a5,5,0,0,0-.94.14l-.12,0-.2,0a8.26,8.26,0,0,0-1.58.7c-11.82,6.73-23.88,13.5-35.54,20h0l-14.46,8.13-.62.35a15.39,15.39,0,0,0-1.55,1.09h0l-.71.54a25.79,25.79,0,0,0,2.3,1.62l15.69,8.88h0c11.65,6.58,23.69,13.38,35.5,20.13a6.43,6.43,0,0,0,1.24.53,5.26,5.26,0,0,0,1.12.12,4.58,4.58,0,0,0,.64,0,7,7,0,0,0,2.06-.79c19-10.67,35.44-19.93,50.37-28.31.58-.33,1.14-.72,1.79-1.17l1.24-.86-1.3-.82,0,0,0,0c-.75-.48-1.4-.9-2.07-1.28l-14.52-8.2-.18-.1c-11.46-6.46-23.3-13.15-34.91-19.79a6.48,6.48,0,0,0-3.2-1ZM964,220a5.9,5.9,0,0,0-2.87.95L937.5,234.16v.2l-27.4,15.4a12,12,0,0,0-1.32.92h0l-.87.66,1.28.83c.63.41,1.23.81,1.83,1.15,7.66,4.32,15.82,8.94,26.48,15v.1c8,4.5,16,9.06,23.85,13.54a4.53,4.53,0,0,0,2.27.68,6,6,0,0,0,2.83-.93l39-21.95,3.23-1.82,8.73-4.92a27.23,27.23,0,0,0,2.4-1.75l-.72-.53A11.35,11.35,0,0,0,1018,250c-5.37-3-10.92-6.18-15.81-8.94-11.78-6.65-24-13.53-36-20.42A4.49,4.49,0,0,0,964,220Zm-115.72.26a6.16,6.16,0,0,0-2.53.87c-11.29,6.41-22.79,12.87-33.91,19.13l-.15.08-.27.15L795,249.64a12.64,12.64,0,0,0-1.55,1.08c-.3.23-.61.47-1,.73l1.15.75,0,0c.69.45,1.29.85,1.91,1.2l14.53,8.21.12.06c11.57,6.53,23.55,13.29,35.27,20a5.88,5.88,0,0,0,3.1.89h.1a5.16,5.16,0,0,0,1.16-.22l.08,0a9.85,9.85,0,0,0,1.58-.73l.8-.45c12.33-7,24.92-14.05,37.1-20.87l.12-.07L901,253.85l.94-.55c.52-.31,1.05-.67,1.6-1.06l.06,0,1-.66-.89-.59-.18-.12h0a20.08,20.08,0,0,0-1.78-1.14l-14.81-8.37C875.12,234.69,863,227.84,851.08,221a6.86,6.86,0,0,0-1.36-.6,5.46,5.46,0,0,0-1.45-.2ZM502,220h-.12a6.81,6.81,0,0,0-2.39.91c-14.53,8.18-28.65,16.11-42,23.58l-8.41,4.72-.45.25-.6.34a15.48,15.48,0,0,0-1.34.95l-.67.5.8.58a11.4,11.4,0,0,0,1.07.75l11.74,6.63,2.13,1.2c12.41,7,25.26,14.26,37.95,21.52a4.34,4.34,0,0,0,2.28.64h.06a6.59,6.59,0,0,0,2.39-.89L555.44,253a28,28,0,0,0,2.41-1.75l-.72-.53c-.34-.26-.7-.51-1.07-.74l-15.55-8.78-.31-.18c-11.8-6.66-24-13.56-36-20.39h0A4.25,4.25,0,0,0,502,220Zm692.61,0a5.05,5.05,0,0,0-2.93.93c-11.15,6.33-22.52,12.72-33.51,18.89l-.25.15-1.19.66c-5.26,3-10.7,6-16,9a21,21,0,0,0-2.18,1.71l1.17.72c.81.5,1.5.94,2.23,1.35l13.65,7.72c11.68,6.59,23.75,13.4,35.61,20.24a6.74,6.74,0,0,0,3.4,1.06,7.36,7.36,0,0,0,3.66-1.17c9.9-5.65,20-11.3,29.76-16.78l.55-.31c4.67-2.61,9.49-5.32,14.22-8,1.91-1.07,3.78-2.15,5.94-3.4l.08-.05.44-.26,1.77-1c-.48-.31-.89-.6-1.25-.84l0,0c-.65-.44-1.17-.8-1.71-1.11L1234.71,242c-12.21-6.89-24.83-14-37.24-21.12h0a5.13,5.13,0,0,0-2.84-.87Zm-923.71.12h-.14a6.8,6.8,0,0,0-1,.16l-.07,0h0l-.14,0a8.77,8.77,0,0,0-1.62.74l-.13.07-.95.54-.33.18-1.19.67c-11.62,6.61-23.47,13.27-34.93,19.7l-.14.08-12.69,7.13q-.49.3-1,.63l-1.22,1-.14.12a11.86,11.86,0,0,0,1.18.94c17.45,9.86,35.21,19.94,52.79,29.95a5.28,5.28,0,0,0,3.33.15h0l.1-.05h0c.2-.09.4-.18.61-.3,18.3-10.29,35.19-19.8,51.64-29.07a15.56,15.56,0,0,0,2-1.66l-.92-.59-.07,0h0c-.77-.49-1.43-.91-2.12-1.3l-13.54-7.65-.05,0c-11.82-6.67-24-13.56-36-20.44h0a6.3,6.3,0,0,0-3.38-1Zm462,0a5.52,5.52,0,0,0-.71,0,6.9,6.9,0,0,0-2.05.78c-11.49,6.52-23.06,13-34.23,19.3l-16.75,9.41a20.69,20.69,0,0,0-2.16,1.7l.16.13,1.09.67c.74.46,1.44.9,2.14,1.29l13.48,7.62.21.12h0c11.67,6.59,23.74,13.4,35.55,20.21a6.67,6.67,0,0,0,3.47,1,7.42,7.42,0,0,0,2.72-.87l10.6-6c9-5.1,17.88-10.08,26.31-14.81l10.06-5.66.83-.47,3.53-2a20.55,20.55,0,0,0,1.62-1.34c-.32-.21-.62-.41-.87-.59l-.1-.06h0c-.65-.44-1.17-.8-1.7-1.09l-13-7.36c-12.28-6.93-25-14.1-37.55-21.3a7.72,7.72,0,0,0-1.38-.61,5.84,5.84,0,0,0-1.25-.14Zm232.26-2.81h0L1018.6,249l2.36,1.4-.32-35.28v-1.17c-.08-9.49-.17-18.93-.25-28.38l-52.9-31.38c-.47-.26-1-.5-1.45-.72h0l-.52-.25h-.09a.5.5,0,0,0-.24.06,3.37,3.37,0,0,0-.56.3l.12,12.25,0,4.82c.14,15.24.28,31,.43,46.7ZM41.92,153.18a.54.54,0,0,0-.25.06,5.86,5.86,0,0,0-.55.3c.19,20.39.38,41.25.58,63.77l55.79,33.05c-.11-12.58-.22-24.89-.33-37.1l-.09-9.9-.17-17.82L44,154.17c-.47-.27-1-.51-1.46-.74l-.52-.24-.09,0Zm1038.23-.37h0c0,.53,0,1-.06,1.46v0c0,.92-.08,1.71-.07,2.5,0,5.34.1,10.76.14,15.55v.06c.13,13.56.26,27.59.29,41.39a5.61,5.61,0,0,0,3.26,5.49c11.76,6.87,23.64,13.92,35.13,20.73l1.24.74,12.38,7.34c.7.41,1.41.81,2.25,1.27l.13.07,1.37.77c0-.4.08-.74.12-1v-.08a13.83,13.83,0,0,0,.12-1.58c0-5.69-.1-11.46-.15-17.06v-.26c-.13-13.86-.27-28.18-.33-42.27,0-2-.93-3-2.61-4-16.21-9.6-33.14-19.63-50.32-29.79a18,18,0,0,0-1.87-.92l-.11,0-.92-.42Zm-576.52,64.5h0l36.79,21.8,6.37,3.78L559,250.14c-.1-11.06-.2-22-.3-32.7v-1.58c-.09-10.15-.18-20.22-.27-30.33l-52.92-31.37c-.46-.26-1-.5-1.43-.72h0l-.42-.2h-.06a4.83,4.83,0,0,0-.55.3q.18,20.22.37,40.64l.1,10.29.11,12.84h0ZM1195.5,153h0c.09,9.61.17,19.13.26,28.61l0,4.25v1.72q.14,14.88.28,29.74l5,3,1.26.74.07,0c7,4.18,14.25,8.5,21.4,12.68,3,1.76,6,3.57,8.93,5.32l0,0c6.08,3.65,12.36,7.42,18.85,10.92h0c0-.48.08-.84.11-1.11h0a7.75,7.75,0,0,0,.07-1c0-4.74-.09-9.55-.13-14.24l0-1.76c-.13-14.38-.27-29.26-.36-44a3.9,3.9,0,0,0-2.28-3.76c-17-10-34-20.14-50.67-30a26.1,26.1,0,0,0-2.89-1.23Zm-232.29-.16-2.73,1.56-.64.37c-3.24,1.85-6.29,3.6-9.3,5.38l-13,7.64v.16c-9,5.33-18.28,10.76-27.51,16.15-1.93,1.13-2.32,2.52-2.33,4.54-.11,12-.26,24.25-.39,36.07v1.08c-.08,7-.16,14.23-.24,21.34a23.56,23.56,0,0,0,.33,2.91l.48-.23.25-.13h0c.47-.23.88-.43,1.28-.65l1.2-.69,26.57-15.71v0c7.84-4.63,15.6-9.2,23.09-13.57a4.8,4.8,0,0,0,2.58-4.77c.1-13.15.26-26.35.41-39.11q.1-9.72.21-19c0-.62,0-1.23-.1-2h0v0c-.05-.39-.09-.83-.12-1.31ZM618.59,153h0c0,.44,0,.84-.06,1.24v.1c0,.91-.08,1.7-.07,2.5,0,5.06.09,10.22.14,15.2v.44c.13,13.55.26,27.56.29,41.35a5.6,5.6,0,0,0,3.26,5.49c11.74,6.86,23.63,13.92,35.13,20.74l13.61,8.07c.68.4,1.36.78,2.23,1.25h0l1.18.65h0c0-.32.07-.61.1-.86a11.31,11.31,0,0,0,.12-1.64c0-5.51-.1-11.13-.14-16.56l0-1.7c-.13-13.52-.25-27.5-.32-41.33,0-2-.93-3-2.61-4l-50.31-29.79a26.82,26.82,0,0,0-2.54-1.21ZM272.15,153q.09,11.22.2,22.18l0,2.94c.13,13.42.24,26.1.35,39.12L284,223.93l41.18,24.4h0l.7.39.2.11,2.11,1.18c-.2-20.92-.38-41.15-.58-63.68a3.36,3.36,0,0,0-.95-1.4l-10.77-6.39L304.78,172l-30.52-18.08c-.34-.16-.7-.3-1.11-.47h0l-1-.4Zm1037.38-.28c-.4.19-.75.34-1,.47h0a11.37,11.37,0,0,0-1.45.7l-16.15,9.52c-11.21,6.62-22.8,13.46-34.27,20.15a5.1,5.1,0,0,0-3,5c-.08,13.37-.24,26.85-.39,39.89-.08,6.29-.15,12.45-.21,18.6a22.7,22.7,0,0,0,.35,3l.85-.39,0,0a11.2,11.2,0,0,0,1.1-.54l13.55-8,.08,0c12.36-7.3,25.14-14.84,37.75-22.2a4.2,4.2,0,0,0,1.88-2,6.68,6.68,0,0,0,.42-2.59h0c.14-14.48.31-29.51.46-42.78l0-2.92.15-12.41c0-.64,0-1.31-.09-2.07,0-.4-.06-.84-.08-1.33Zm-115.61.23h0q-.36.18-.66.3l-.07,0h0c-.41.18-.81.38-1.19.59-16.84,10-34.1,20.17-51.34,30.24a4.43,4.43,0,0,0-1.87,1.89,4.49,4.49,0,0,0-.48,2.62c-.12,13.14-.27,26.51-.43,39.43v.3c-.06,5.69-.14,12.14-.21,18.34,0,.63,0,1.28.09,2v.08c0,.36,0,.73.07,1.16a11.74,11.74,0,0,0,1.53-.58c17.31-10.25,34.91-20.6,52.3-30.78a4,4,0,0,0,2-3.94h0c.1-10.65.22-21.52.33-31.12.1-9.18.21-18.68.3-28.07a14.5,14.5,0,0,0-.41-2.53ZM190.39,237h0l7.26,4.3.77.47,11.36,6.72c.56.33,1.15.63,1.9,1l.86.45q0-.6.09-1.05c.06-.73.1-1.29.1-1.85,0-5.07-.09-10.23-.14-15.23l0-2.1c-.12-13.59-.26-27.64-.32-41.5a4.46,4.46,0,0,0-2.66-4.31L190,172.31v-.09c-9.22-5.47-19.18-11.36-30.45-18a17.55,17.55,0,0,0-1.85-.9l-1.05-.47c0,.55,0,1-.06,1.51v0c0,.9-.08,1.69-.07,2.48,0,5,.09,10.06.14,15v.6c.13,13.57.26,27.61.29,41.42a5.63,5.63,0,0,0,.77,3.26,5.55,5.55,0,0,0,2.49,2.23c10.07,5.9,20.22,11.89,30.16,17.8V237ZM501.3,153h0l-3.22,1.85-.19.1-.06,0c-3.08,1.76-6,3.43-8.85,5.11-13.61,8-27.15,16-40.26,23.62a5.11,5.11,0,0,0-2.68,2.71,5,5,0,0,0-.23,1.49c-.09,12.3-.23,24.8-.37,36.9V225c-.09,8.16-.17,15.53-.25,22.94a7.83,7.83,0,0,0,.47,2l.31-.15,0,0a18.55,18.55,0,0,0,1.85-1l12.21-7.21,1.72-1c11.94-7.06,24.3-14.36,36.48-21.49a4.78,4.78,0,0,0,2.58-4.76h0c.1-12.93.25-26,.4-38.64.07-6.37.15-13,.22-19.49,0-.61-.05-1.22-.11-2h0c0-.34-.06-.71-.09-1.13Zm230.73.11h0l-.33.15-.06,0a11.11,11.11,0,0,0-1.2.59c-17.07,10.13-34.34,20.3-51.33,30.24a4.5,4.5,0,0,0-2.36,4.51c-.11,13.11-.27,26.44-.42,39.33v0c-.07,5.78-.14,12.33-.21,18.68,0,.66,0,1.34.09,2.13,0,.32,0,.64.06,1l.35-.12.11,0h0c.25-.09.43-.15.59-.22l0,0,0,0c17.18-10.17,34.78-20.53,52.3-30.78a4,4,0,0,0,2-3.95c.1-10.56.23-21.31.34-31.71v-.49c.11-9.63.21-18.31.3-27a11.85,11.85,0,0,0-.39-2.37Zm346.6-.31a13,13,0,0,0-1.51.57c-17.11,10.14-34.71,20.5-52.3,30.79a4,4,0,0,0-2,3.94c-.19,17.34-.42,37.93-.65,59.18a15.36,15.36,0,0,0,.42,2.53l.78-.38h0c.54-.26,1-.48,1.45-.74,16.75-9.92,33.81-19.95,50.71-29.83a4.79,4.79,0,0,0,2.07-1.94,4.85,4.85,0,0,0,.61-2.77c.1-13.36.26-27,.41-40.09V174l0-1.8c.06-5.29.13-10.75.18-16.11,0-.64,0-1.29-.09-2v0c0-.37-.06-.75-.09-1.19Zm-923.48,0a13,13,0,0,0-1.51.57c-17.1,10.14-34.7,20.49-52.3,30.79a4,4,0,0,0-2,3.94c-.19,17.3-.39,35.55-.65,59.18a16.51,16.51,0,0,0,.43,2.53l.75-.36,0,0c.55-.26,1-.48,1.46-.74,16.9-10,34-20.05,50.71-29.83A4.79,4.79,0,0,0,154.1,217a4.87,4.87,0,0,0,.61-2.77c.1-13.29.25-26.82.41-39.9v-.12c.07-5.92.14-12,.2-18,0-.65,0-1.29-.1-2,0-.36-.05-.78-.08-1.24Zm578.8.3h0c.1,10.33.19,20.79.28,30.61.1,11.35.2,22.47.31,33.57l5.47,3.26,1.19.71c6.9,4.11,14,8.36,21.09,12.5,3,1.77,6.05,3.58,9,5.34,6,3.58,12.12,7.28,18.5,10.72,0-.34.06-.62.09-.85v0c0-.33.06-.66.07-1,0-5.17-.09-10.42-.14-15.5v-1c-.13-14.26-.27-29-.36-43.5a3.88,3.88,0,0,0-2.28-3.76c-18.43-10.92-35-20.73-50.67-30a18.73,18.73,0,0,0-2.52-1.08Zm113.67-.23a21,21,0,0,0-2.14,1c-5.29,3.11-10.68,6.28-15.88,9.36l-1,.56c-11,6.49-22.34,13.19-33.58,19.75a5.11,5.11,0,0,0-2.95,4.95c-.08,13.12-.24,26.46-.39,39.36v1c-.07,5.94-.15,12.07-.21,18.1a20.51,20.51,0,0,0,.33,2.81l.19-.08.18-.09c.66-.32,1.16-.57,1.61-.82l12.67-7.47c12.5-7.38,25.44-15,38.25-22.5a5.23,5.23,0,0,0,1.85-1.74,5.86,5.86,0,0,0,.57-2.88l.32-28.63,0-1.82.3-27.67c0-.62,0-1.24-.08-2h0c0-.35-.06-.77-.08-1.21Zm-577.38.18h0l-.23.11c-.6.29-1.17.56-1.66.84l-15.58,9.19-.28.17c-11.51,6.8-23.42,13.83-35.15,20.68a4.53,4.53,0,0,0-1.9,1.88,4.48,4.48,0,0,0-.5,2.62c-.12,13.89-.28,28-.44,41.6-.06,5-.13,10.82-.19,16.46,0,.66,0,1.35.08,2.14h0c0,.32,0,.65.06,1a7.79,7.79,0,0,0,1.14-.42c17.42-10.3,35-20.66,52.3-30.79a4,4,0,0,0,2.06-3.92c.12-12,.26-24.22.39-36v-.34c.09-7.48.18-15.22.26-22.83a16.16,16.16,0,0,0-.36-2.4Zm115.58-.22h0l-.24.1h0l-.17.07-.4.19h0a14,14,0,0,0-1.27.61L369.84,162c-12,7.1-24.46,14.44-36.82,21.65l-.17.13-.16.11a6.77,6.77,0,0,0-1,.72l-.06.07-.05.06a5,5,0,0,0-1.29,3.73c-.11,12.45-.25,25-.39,37.07-.08,6.65-.16,14.18-.24,21.42a19,19,0,0,0,.34,2.82l.65-.33.11-.06c.54-.26,1-.51,1.51-.78l13.39-7.9.29-.17c12-7.1,24.47-14.45,36.74-21.61a4.81,4.81,0,0,0,2.63-4.74c.1-13.26.26-26.56.41-39.41l0-1.58c.07-5.62.14-11.42.2-17.12,0-.68,0-1.37-.09-2.23,0-.31,0-.64-.07-1Zm230.88.1h0a6.88,6.88,0,0,0-1.14.44c-17.35,10.27-34.94,20.63-52.3,30.78a4,4,0,0,0-2,3.95c-.21,19-.43,38.9-.65,59.18a13.36,13.36,0,0,0,.39,2.36l.28-.13,0,0h0c.6-.28,1.12-.53,1.59-.8,16.8-9.94,33.86-20,50.72-29.82a4.85,4.85,0,0,0,2.06-2,4.76,4.76,0,0,0,.61-2.76h0c.1-13.37.25-26.79.4-39.77.07-6.22.14-12.31.2-18.31,0-.65,0-1.31-.1-2.08v-.1c0-.31,0-.62-.07-1Zm232.8.4h0a7.63,7.63,0,0,0-.13,1.07c.06,7,.12,14.12.17,20.42v0c.11,13.21.23,26.86.31,40.3a3.53,3.53,0,0,0,1.82,3.25l.36.23.26.17,16.23,9.61,26.07,15.43a113.54,113.54,0,0,0,10.88,5.69c-.14-14.4-.27-28.86-.4-42.84l-.06-7.05q-.07-7-.14-14c-.33-.23-.75-.52-1.28-.87L859.46,158.6c-5.35-3-8.7-4.75-10-5.25Zm-461.93,0s0,.1,0,.14v0s0,.1,0,.16c.11,11.89.22,23.92.33,35.68l.06,7.09.06,5.64q.06,7.16.13,14.29a3.05,3.05,0,0,0,.58,1.08c1.62,1.12,4.37,2.88,8.18,5.22l26.9,15.92c10.75,6.18,18,10.14,19.9,10.87-.22-24.35-.44-48-.58-63.74-1.17-.84-3.2-2.15-6.18-4l-31.15-18.47c-9.67-5.54-16.29-9.14-18.18-9.9Zm634.21-33a5.9,5.9,0,0,0-3.4,1.08c-12.12,6.92-24.45,13.85-36.38,20.55l-.55.31-12.74,7.16c-.65.36-1.26.77-2,1.24h0l-.06,0-1,.67a12.14,12.14,0,0,0,1.31,1.06c18.14,10.26,35.91,20.33,52.82,29.94a3.72,3.72,0,0,0,4.11-.06c16.83-9.45,34.43-19.34,52.29-29.4a9.66,9.66,0,0,0,1.6-1.53l-1-.63,0,0,0,0c-.73-.46-1.35-.86-2-1.23l-13-7.35-1-.58,0,0c-11.67-6.58-23.72-13.38-35.52-20.17a5.92,5.92,0,0,0-3.35-1Zm-923.48,0a5.92,5.92,0,0,0-3.4,1.08c-12.15,6.94-24.55,13.9-36.54,20.64l0,0c-4.29,2.4-8.72,4.9-13.08,7.35-.65.36-1.26.77-2,1.25h0l-1.05.69a12.14,12.14,0,0,0,1.31,1.06c18,10.19,35.78,20.26,52.82,29.94a3.69,3.69,0,0,0,2,.59,3.75,3.75,0,0,0,2.1-.65C118,172.5,135.58,162.6,152.72,153a10,10,0,0,0,1.6-1.52l-1-.64h0c-.71-.45-1.38-.87-2.06-1.25-4.4-2.5-8.89-5-13.23-7.48l-1-.54c-11.59-6.54-23.58-13.31-35.4-20.1a5.88,5.88,0,0,0-3.35-1Zm461.7,0a7.05,7.05,0,0,0-3.18,1c-12.11,6.92-24.47,13.86-36.41,20.56l-13.26,7.46c-.64.35-1.25.76-2,1.23v0l-1.07.7a12.14,12.14,0,0,0,1.31,1.06c17.45,9.87,35.22,19.94,52.81,29.94a4,4,0,0,0,1.85.56,4.4,4.4,0,0,0,1.9-.62c17.36-9.75,35-19.64,52.3-29.4a11,11,0,0,0,1.6-1.52l-1-.63c-.76-.48-1.41-.89-2.09-1.27-4.31-2.45-8.71-4.93-13-7.33l-1.32-.75c-11.57-6.53-23.54-13.28-35.3-20a6.77,6.77,0,0,0-3.2-1Zm692.77-.11a4.45,4.45,0,0,0-2.7.9c-15.42,8.67-32,18-50.65,28.45l-1.85,1.07-.08,0-1.14.66,1,.73h0c.43.32.87.62,1.32.89l9.46,5.34,1.56.88c13.26,7.48,27,15.22,40.49,22.94a4.52,4.52,0,0,0,5.08-.21l50.64-28.49a18.77,18.77,0,0,0,1.83-1.22l0,0,1-.69L1308,151,1308,151a15.5,15.5,0,0,0-1.3-.87l-11.54-6.52-.24-.13c-13-7.36-26.5-15-39.71-22.51h0a4.55,4.55,0,0,0-2.38-.67Zm-461.88,0a6.1,6.1,0,0,0-2.38.87c-16,9-32.54,18.3-50.65,28.46-.55.3-1.1.62-1.79,1l0,0-1.24.71,1.05.75c.43.31.87.61,1.32.88l7.56,4.27,3,1.69c13.42,7.58,27.31,15.42,40.95,23.2a5.52,5.52,0,0,0,1.3.55,4,4,0,0,0,.5.06,3.89,3.89,0,0,0,.49,0l.48-.09a7.08,7.08,0,0,0,1.94-.77L844,153.5a25.4,25.4,0,0,0,2.22-1.5l.57-.47c-.3-.2-.56-.39-.78-.55-.49-.35-.88-.62-1.29-.87L835,144.63,832.13,143c-12.73-7.19-25.89-14.61-38.9-22a5,5,0,0,0-1.29-.54,3.18,3.18,0,0,0-.43-.06,2.94,2.94,0,0,0-.59,0Zm-461.75,0h0a4.11,4.11,0,0,0-.85.16l-.15,0h0l-.19.05a7.4,7.4,0,0,0-1.31.61c-16,9-32.43,18.24-50.32,28.28l-1.69,1-1.62.94,1,.74,0,0a12.05,12.05,0,0,0,1,.72c17.32,9.74,34.76,19.61,51.83,29.34a4.54,4.54,0,0,0,2.18.65,5.38,5.38,0,0,0,2.22-.75l51.59-29a21.17,21.17,0,0,0,2.07-1.6q-.51-.31-.9-.6l0,0c-.58-.39-1-.69-1.53-1-4.86-2.76-9.82-5.56-14.61-8.26l-1.06-.6h0c-11.54-6.52-23.47-13.26-35.17-19.94a5.12,5.12,0,0,0-2.52-.76Zm577.38.1a7.9,7.9,0,0,0-4,1.24c-11.7,6.7-23.66,13.41-35.23,19.9l-.06,0-.63.35-13.43,7.54c-.51.29-1,.62-1.62,1l0,0c-.35.24-.78.52-1.28.84l.88.63a15.49,15.49,0,0,0,1.37.91l14,7.91.11.06c12.28,6.94,25,14.12,37.44,21.23a5.3,5.3,0,0,0,.65.28,5.36,5.36,0,0,0,1.54.22,5.45,5.45,0,0,0,2.86-.81c5.88-3.32,11.26-6.34,16.46-9.26L955.07,156c1.53-.87,3.09-1.77,4.73-2.73l2.83-1.63c-.52-.34-1-.62-1.37-.91h0c-.63-.43-1.13-.76-1.65-1.06l-5.27-3-17.22-9.73V137c-9-5-18.15-10.26-27.2-15.49a7.65,7.65,0,0,0-3.4-1.15Zm-461.93,0a6,6,0,0,0-2.39.5L442,121l-.4.2-.27.13c-11,6.27-22.27,12.59-33.14,18.69l-.3.17c-5.5,3.1-11.2,6.29-16.8,9.45a26.07,26.07,0,0,0-2.48,1.84l1.25.8h0c.67.43,1.25.81,1.85,1.15l13.34,7.53.12.06c12,6.75,24.34,13.73,36.46,20.68a6.4,6.4,0,0,0,2.58.92,6.57,6.57,0,0,0,3.44-1c11-6.28,22.25-12.58,33.1-18.66l12.4-7c1.54-.87,3.08-1.76,4.72-2.71l2.85-1.64-1.32-.87,0,0c-.64-.43-1.14-.77-1.67-1.07-4.67-2.65-9.37-5.3-13.92-7.86-11.91-6.72-24.22-13.67-36.33-20.61a6.88,6.88,0,0,0-1.24-.55h0a6.19,6.19,0,0,0-1.61-.22Zm692.64-.35a3.65,3.65,0,0,0-2.14.68l-52.25,29.38a12.09,12.09,0,0,0-1.68,1.43l.89.58.1.07c.64.42,1.19.79,1.77,1.11l13.18,7.44.51.29c11.87,6.7,24.14,13.62,36.17,20.55a5.91,5.91,0,0,0,6.75-.08c11.76-6.7,23.67-13.39,35.19-19.87l1.18-.66,12.95-7.28,2.37-1.36,0,0,.34-.2.72-.42a13.52,13.52,0,0,0-1.34-1.17c-17.8-10.05-35.56-20.11-52.78-29.9a3.7,3.7,0,0,0-2-.57Zm-946.84,50.1h0c7,3.93,14.07,7.94,21,11.9a6.36,6.36,0,0,0,.71.31,5.29,5.29,0,0,0,1.52.23,5.1,5.1,0,0,0,1.11-.12,6.75,6.75,0,0,0,1.06-.48c17.73-10,35.08-19.76,51.57-29.07a17.71,17.71,0,0,0,2.08-1.57l-.15-.13-.62-.41-.1-.07c-.58-.38-1.08-.71-1.59-1l-14.94-8.44c-11.74-6.63-23.88-13.49-35.91-20.37a5,5,0,0,0-2.6-.74,6.16,6.16,0,0,0-2.43.83c-16.91,9.5-34.31,19.29-51.73,29.1a12.1,12.1,0,0,0-1.69,1.42l1,.67h0c.63.41,1.17.77,1.74,1.09,10.26,5.79,20.33,11.48,29.94,16.93v-.09Zm485.09-50a4.31,4.31,0,0,0-1,.12,5.79,5.79,0,0,0-.91.42c-17,9.56-34.6,19.44-52.25,29.38a12.9,12.9,0,0,0-1.69,1.43l.94.62.05,0c.64.43,1.2.79,1.77,1.11l13.49,7.62.18.1c11.89,6.7,24.18,13.64,36.2,20.56a6.52,6.52,0,0,0,3.24,1,6.64,6.64,0,0,0,2.54-.77l10-5.65,3.21-1.81c9.39-5.3,19-10.74,28.66-16.15l9.38-5.29a14.41,14.41,0,0,0,1.88-1.41,9.39,9.39,0,0,0-1.12-1c-17.82-10.07-35.58-20.13-52.78-29.9a4.59,4.59,0,0,0-.64-.28,4.16,4.16,0,0,0-1.16-.16ZM1138,52.61h0c.2,21.38.39,41.73.59,64.21v.66c19.45,11.51,39,23.1,55.79,33.05-.1-10-.19-19.84-.28-29.85-.12-12.44-.22-23.66-.32-35h0L1146.3,57.54ZM907.34,53.7h0c.15,16.63.31,33.44.46,49.92l.12,11.93v.65a4.69,4.69,0,0,0,1.33,2.08l14.46,8.57,5.56,3.3,8.22,4.87v.08l12.7,7.54,6.74,4,.49.29,1.87,1.11,4.18,2.48c-.21-23-.41-45.56-.59-64.86L923.32,62.22c-8.44-4.79-14.27-7.9-16-8.52ZM190.39,66.15C180.37,72.08,170.15,78.08,160,84a4.84,4.84,0,0,0-2.72,4.7c-.1,13.61-.26,27.45-.42,40.84v.23c-.06,5.36-.13,11.44-.2,17.42,0,.55,0,1.12.09,1.83,0,.37.06.82.09,1.33l1-.47h0a17,17,0,0,0,1.71-.85c11-6.51,21-12.38,30.43-18v-.19l2.88-1.7.09,0c5.36-3.17,10.91-6.44,16.38-9.63a5.54,5.54,0,0,0,2.43-2.31,5.6,5.6,0,0,0,.69-3.28c.09-13.47.25-27.12.4-40.31v-.32c.06-5.37.13-10.92.19-16.39,0-.74,0-1.5-.09-2.37,0-.45-.05-.9-.08-1.4l-.73.36c-.86.43-1.54.76-2.18,1.15L190.39,66.16ZM1136.53,53h0l-1,.48,0,0a17.17,17.17,0,0,0-1.55.78l-13,7.68c-12.25,7.23-24.92,14.7-37.4,22a4.84,4.84,0,0,0-2.72,4.7c-.1,13.57-.26,27.34-.42,40.66v.43c-.07,5.7-.14,11.6-.2,17.4,0,.56,0,1.12.09,1.83,0,.39.06.82.09,1.33l.92-.42.09,0c.59-.26,1.17-.54,1.73-.85l13.28-7.85.35-.21.21-.12c12.07-7.14,24.56-14.53,36.88-21.73a4.45,4.45,0,0,0,1.89-1.88,4.5,4.5,0,0,0,.5-2.62c.12-13.25.28-26.72.42-39.75v-.68c.07-5.92.14-12,.2-18.06h0c0-1-.15-2.06-.3-3.08Zm-460.09-.12h0c.13,13.77.25,27.18.37,40.45q.12,12.1.23,24.12l32.55,19.28.82.49,5.16,3.05,16.88,10c-.1-11.17-.2-22.29-.3-33l0-4.25-.06-6.9q-.1-10.22-.19-20.43c-13.75-8.14-27.16-16.1-41.36-24.52l-11.22-6.65-.85-.48-.15-.09-1.84-1ZM99.18,52.83h0c0,.52,0,1-.07,1.44v.08h0c0,.92-.08,1.71-.07,2.5,0,4.63.08,9.34.13,13.9V72c.13,13.74.27,27.94.31,41.9a5.58,5.58,0,0,0,3.2,5.51c11.94,7,24,14.16,35.73,21.1l.25.16,13.12,7.78c.63.37,1.3.7,2.06,1.09l1.48.76c0-.64,0-1.19.07-1.68,0-.86.09-1.6.08-2.36,0-4.89-.09-9.87-.13-14.68v-.92c-.13-13.58-.27-27.62-.3-41.43a5.59,5.59,0,0,0-3.22-5.5c-11.31-6.62-22.77-13.42-33.85-20h0l-15.21-9c-.65-.38-1.32-.72-2.09-1.11h0l-.05,0-1.39-.71Zm923.48,0h0c0,.58,0,1.1-.07,1.55h0c-.05.91-.09,1.69-.08,2.47,0,5.17.1,10.44.14,15.09.13,13.75.27,28,.31,42a5.61,5.61,0,0,0,3.2,5.51c12.09,7.07,24.26,14.29,36,21.28l.64.38,12.42,7.37c.64.38,1.33.72,2,1.09l1.49.76c0-.59,0-1.12.07-1.63h0c.05-.88.09-1.63.08-2.39,0-5-.09-10.12-.14-15v-.6c-.13-13.57-.26-27.59-.3-41.39a5.57,5.57,0,0,0-3.21-5.5c-11.15-6.52-22.36-13.17-33.19-19.6l-.31-.18-15.6-9.25c-.66-.39-1.34-.74-2.13-1.13l-1.41-.73Zm-576.95.84h0c0,.3,0,.57,0,.84v.08c-.05.95-.09,1.7-.09,2.44,0,5.35.1,11,.14,15.53.13,13.54.26,27.54.31,41.5a5.31,5.31,0,0,0,3.08,5.2c10.35,6,20.83,12.26,31,18.28l8.56,5.08,12.9,7.66c-.18-20.47-.37-41.61-.58-64.63L455.11,58.48a94.59,94.59,0,0,0-9.4-4.82ZM214.63,53h0c.1,10.71.2,21.24.3,31.68l0,3.85.06,6.87q.1,11.06.21,22.05l26.51,15.71,1.6,1,3.12,1.85,24.17,14.33,0-3.54c-.17-19.34-.36-40-.55-61.08l-7.13-4.23-.57-.34c-6.58-3.92-13.38-8-20.08-11.89-2.9-1.71-5.82-3.46-8.63-5.15-6.1-3.65-12.4-7.43-19-11.05Zm1038.89.23h0c0,.58,0,1.09-.06,1.54v0c0,.45,0,.89-.06,1.32,0,3.57.07,7.19.1,10.75l0,2.77c.14,14.68.29,29.87.35,44.95a4.74,4.74,0,0,0,2.78,4.6l49.7,29.42c.61.35,1.25.67,2,1l1.25.62a13.48,13.48,0,0,0,.26-1.67c0-6.16-.1-12.44-.15-17.84-.12-14-.25-28.5-.33-42.85a3.64,3.64,0,0,0-2.14-3.48c-17.61-10.44-35-20.72-51.6-30.55a10.19,10.19,0,0,0-2.1-.64ZM1021,52.89h0l-1,.48h0a16.48,16.48,0,0,0-1.63.81l-13.59,8-.1,0c-11.81,7-24,14.2-36.11,21.2A5.86,5.86,0,0,0,966,85.88a6,6,0,0,0-.73,3.47c-.07,14.24-.25,28.63-.42,42.54,0,4.35-.11,9.28-.16,14.11,0,.78,0,1.54,0,2.51,0,.51,0,1.08.05,1.73.48-.24.88-.42,1.17-.56l0,0c.56-.26,1-.45,1.34-.67l13.85-8.17c12.18-7.2,24.77-14.63,37.21-21.89,1.93-1.13,2.32-2.52,2.33-4.53.11-11.45.24-23.09.37-34.34.09-8.1.18-16,.26-23.78a19.61,19.61,0,0,0-.15-2.17c0-.34-.08-.77-.12-1.22Zm-923.47,0h0l-1,.48c-.56.25-1.11.52-1.64.82L81,62.35h0c-11.77,7-23.93,14.13-35.95,21.1a6,6,0,0,0-3.31,5.89c-.07,14.13-.24,28.5-.41,42.4v.08c-.06,4.37-.12,9.32-.17,14.17,0,.77,0,1.52,0,2.47h0c0,.52,0,1.1,0,1.76l1.1-.53.07,0c.54-.25,1-.46,1.37-.69l13.49-8,.36-.21.19-.11c12.12-7.16,24.66-14.56,37-21.77,1.93-1.13,2.32-2.52,2.33-4.54.1-11.18.23-22.41.35-33.26v-.5c.09-8,.18-16.24.27-24.35h0a20.33,20.33,0,0,0-.15-2.21c0-.38-.08-.76-.12-1.19Zm577.07.31h0l-.6.29c-.62.29-1.17.55-1.65.83L659,62.2C647.5,69,634.45,76.69,621.94,84a4.81,4.81,0,0,0-2.08,1.94,4.76,4.76,0,0,0-.64,2.76c-.1,13.55-.26,27.33-.42,40.65v.25c-.07,6-.14,11.81-.2,17.59,0,.56,0,1.15.09,1.83v0c0,.33,0,.71.08,1.14l.64-.3c.59-.25,1.17-.54,1.74-.85l12.68-7.49,1.4-.83.09,0c11.91-7.05,24.23-14.33,36.39-21.43l0,0,0,0L672,119l.18-.13h0l.14-.11a5.16,5.16,0,0,0,1.66-2.12,6.87,6.87,0,0,0,.32-2.06c.12-13.62.28-27.35.43-40.62.08-7,.15-12.72.2-17.87a26,26,0,0,0-.28-2.92ZM561.1,53c0,.44,0,.82-.06,1.25h0c0,.95-.09,1.77-.08,2.58,0,5.28.1,10.64.14,15.37v0c.13,13.66.27,27.77.31,41.65a5.61,5.61,0,0,0,3.2,5.52c11.95,7,24.06,14.17,35.77,21.12l.17.1c4.2,2.5,8.68,5.15,13.16,7.8.66.39,1.36.74,2.17,1.15l0,0c.31.15.63.31,1,.49,0-.55,0-1,.07-1.5,0-.82.09-1.6.08-2.35,0-5.23-.1-10.54-.14-15.22-.14-13.69-.27-27.85-.31-41.81a5.58,5.58,0,0,0-3.21-5.5c-11.19-6.54-22.5-13.26-33.45-19.76L564.27,54.7c-.71-.43-1.46-.81-2.33-1.25l-.06,0-.78-.4Zm-2,0h0l-.58.26h0c-.59.26-1.17.55-1.74.86l-13.56,8-.1.07c-11.82,7-24,14.2-36.14,21.2a6,6,0,0,0-3.31,5.89c-.07,14.37-.25,28.83-.42,42.81-.05,4.17-.11,9.08-.17,13.84,0,.78,0,1.54.05,2.51v.25c0,.39,0,.83,0,1.31l.76-.37h0c.58-.28,1-.48,1.4-.71l14-8.26c12.12-7.15,24.64-14.55,37.06-21.8,1.93-1.13,2.32-2.52,2.33-4.53.1-11.06.23-22.31.35-33.19v-.37l0-1.72c.09-7.49.18-15.24.25-22.84a16.45,16.45,0,0,0-.15-2.22V54c0-.3-.07-.61-.1-.93ZM792,53.31h0c0,.4,0,.76-.06,1.1,0,.58-.06,1.14-.06,1.68l.12,12.4v1c.15,14.77.3,30,.36,45.07a4.72,4.72,0,0,0,2.78,4.6l49.7,29.41c.61.36,1.26.68,2,1.06l.87.43a10.64,10.64,0,0,0,.23-1.5c-.2-20.45-.36-40.87-.48-60.69a4.89,4.89,0,0,0-.14-1.15l0,0a3.85,3.85,0,0,0-2-2.28c-17.19-10.19-34.55-20.47-51.6-30.55A7.4,7.4,0,0,0,792,53.3Zm-348.21-.14h0l-.68.32h0l-.87.43L440.3,55l-13.59,8-.14.08,0,0c-11.46,6.78-23.31,13.79-35,20.61a5.63,5.63,0,0,0-3.22,5.52c-.07,13.56-.23,27.35-.4,40.68v.13c-.06,5.22-.13,10.76-.19,16.15,0,.74,0,1.51.08,2.39v.1c0,.42,0,.84.07,1.32l.47-.14,1.3-.74.1-.06,1.67-1,12.83-7.57,1.12-.67c11.4-6.74,23.2-13.7,34.84-20.48a5.61,5.61,0,0,0,3.19-5.53c.07-13.2.24-26.6.39-39.55.08-6,.15-11.92.21-17.79a22.34,22.34,0,0,0-.13-2.45c0-.26,0-.53-.07-.82,0,0,0,0,0-.07h0s0,0,0-.05ZM1252,53h0a12.87,12.87,0,0,0-1.5.57c-17.15,10.15-34.75,20.51-52.3,30.79a4,4,0,0,0-2.06,4c-.1,11-.23,22-.35,32.62-.1,8.68-.2,17.66-.29,26.55a16.78,16.78,0,0,0,.4,2.54l.74-.35.06,0a11.78,11.78,0,0,0,1.13-.55l10.57-6.23,2.1-1.24c12.61-7.44,25.66-15.13,38.69-22.73,1.93-1.14,2.32-2.52,2.33-4.53.13-13.9.29-28,.45-41.69V71q.09-7.36.17-14.72h0c0-.63,0-1.27-.09-2,0-.4,0-.83-.08-1.29Zm-346.67.33-.37.18-.06,0h0a11.83,11.83,0,0,0-1.13.57c-17.34,10.28-34.61,20.45-51.32,30.25a4.19,4.19,0,0,0-2.32,4.15c-.12,13-.27,26.3-.41,39.12V128c-.07,5.73-.14,12.41-.21,19,0,.63,0,1.26.08,2V149c0,.31,0,.63.06,1a4.48,4.48,0,0,0,.88-.27c17-10,34.45-20.3,52-30.56a5.41,5.41,0,0,0,2.58-3.35,4.93,4.93,0,0,0,.07-.66c.1-10.32.21-20.81.32-30.94v-.55c.1-9.32.21-19,.3-28.42h0a7.87,7.87,0,0,0-.44-1.92Zm-575.11-.06h0c0,.28,0,.55-.07.81v.08c-.07.72-.13,1.35-.13,2l.12,12.55v2.12c.14,14.36.27,29.2.35,43.8a4.4,4.4,0,0,0,.59,2.58,4.44,4.44,0,0,0,1.94,1.8c16.26,9.61,32.73,19.35,50.33,29.79.59.33,1.21.63,1.83.91l.68.31c0-.34.06-.65.09-.95h0c.07-.76.13-1.41.13-2.06-.05-6-.11-12.16-.16-18v-.08c-.13-13.25-.25-27-.33-40.44a4.47,4.47,0,0,0-.58-2.58,4.39,4.39,0,0,0-1.94-1.8L332.78,54.34a17.88,17.88,0,0,0-1.69-.86l-.84-.21Zm459.87-.14a7.62,7.62,0,0,0-1.15.45c-17.19,10.16-34.78,20.52-52.3,30.78a4,4,0,0,0-2,4c-.1,10.77-.23,21.72-.35,32.31v1.3c-.1,8.38-.2,17.05-.28,25.57a13.59,13.59,0,0,0,.37,2.37l.39-.18c.53-.25,1-.46,1.34-.67l12.17-7.18c12.72-7.5,25.86-15.25,38.92-22.86a5.84,5.84,0,0,0,.64-.47,6.07,6.07,0,0,0,.57-.43,4.82,4.82,0,0,0,.35-.44,5.22,5.22,0,0,0,.91-3.27c.12-13.82.29-27.87.45-41.46v-.35c.07-6.14.13-11.46.19-16.26,0-.62,0-1.25-.1-2V54.2c0-.34,0-.69-.06-1.08Zm-461.81,0c-.39.13-.78.28-1.15.44-17.39,10.29-35,20.65-52.29,30.79a4,4,0,0,0-2.06,3.93c-.19,17.5-.4,36.31-.64,59.19a12.83,12.83,0,0,0,.38,2.38l.34-.17.09,0c.56-.27,1-.5,1.48-.76,4.35-2.55,8.77-5.16,13-7.68l.75-.44c12.09-7.13,24.6-14.5,36.93-21.7a4.86,4.86,0,0,0,2.67-4.73c.1-13.5.26-27.23.41-40.52h0c.07-5.41.14-11.54.2-17.54h0c0-.63,0-1.27-.08-2,0-.35-.05-.73-.08-1.15Zm866.86-32.55a5.82,5.82,0,0,0-3.33,1c-11.93,6.82-24.1,13.66-35.89,20.27l0,0-.2.11-13.56,7.62h0c-1,.54-1.94,1.11-3.3,1.9.36.27.64.49.86.67h0a7.59,7.59,0,0,0,.86.63c17.47,9.86,35.14,19.87,52.52,29.76a4,4,0,0,0,2.07.58,4,4,0,0,0,2.37-.77l51.66-29a16.6,16.6,0,0,0,2.06-1.68l-1.08-.69,0,0c-.72-.46-1.35-.86-2-1.23l-12.33-7-1.67-.94c-11.68-6.59-23.75-13.41-35.6-20.2a5.86,5.86,0,0,0-3.41-1.09ZM680.61,49.58c-.93.52-1.8,1-3.3,1.9l.81.63.07.06a8.72,8.72,0,0,0,.87.63c17.55,9.9,35.22,19.91,52.51,29.75a4.76,4.76,0,0,0,.75.31,4.23,4.23,0,0,0,1.06.14,4,4,0,0,0,1.61-.33l.15-.06.05,0a4.93,4.93,0,0,0,.46-.23c16.82-9.44,34.2-19.21,51.66-29a15,15,0,0,0,2.05-1.68l-1.12-.71h0c-.71-.46-1.33-.85-2-1.21L772.59,42l-.62-.35-.08,0c-11.56-6.53-23.52-13.28-35.23-20a7,7,0,0,0-3.06-1,6.43,6.43,0,0,0-3.31,1c-11.86,6.78-24,13.58-35.68,20.16l-.1.06-13.9,7.81ZM964.37,20.39a4.52,4.52,0,0,0-2.69.89L937.5,34.87v.21c-8.94,5-18.06,10.13-27.13,15.24a20.64,20.64,0,0,0-1.93,1.4l.83.6v0a11.43,11.43,0,0,0,1.23.82l27,15.28v.06c8.08,4.56,16.26,9.2,24.3,13.79a4.49,4.49,0,0,0,2.42.7,4.55,4.55,0,0,0,2.68-.88l51-28.66a18.29,18.29,0,0,0,1.65-1.11l.9-.64-.84-.6c-.41-.31-.83-.59-1.27-.86l-15.37-8.68-.43-.24c-11.71-6.62-23.82-13.46-35.7-20.24a4.54,4.54,0,0,0-2.41-.7Zm-692.71.16a5.52,5.52,0,0,0-.81.06h-.06a5.61,5.61,0,0,0-.89.25,8.79,8.79,0,0,0-1.32.61c-11.43,6.51-23.1,13.06-34.37,19.39l-.05,0c-5.11,2.86-10.39,5.83-15.59,8.76-.74.41-1.48.84-2.59,1.48l-.5.29c.44.31.79.57,1.09.8h0a13,13,0,0,0,1.24.85c17.18,9.67,34.52,19.49,51.54,29.19a5,5,0,0,0,2.29.7,5.54,5.54,0,0,0,2.44-.79l51-28.66a12.45,12.45,0,0,0,1.51-1.07h0c.31-.25.63-.5,1-.77-.43-.27-.79-.51-1.19-.78-.69-.45-1.28-.84-1.89-1.18l-14.05-7.94-.09,0c-11.75-6.63-23.9-13.48-35.79-20.31a8,8,0,0,0-1.49-.66,5.23,5.23,0,0,0-1.46-.23Zm230.85-.13a6.1,6.1,0,0,0-2.37.86l-24.56,13.8-17.8,10-.92.52-7.37,4.14-1.06.6-.05,0c-.61.4-1.21.83-1.78,1.29.33.22.6.42.86.61h0a13.62,13.62,0,0,0,1.28.86l14.23,8,.64.36c12,6.75,24.32,13.73,36.63,20.76a4.53,4.53,0,0,0,2.35.66A5.93,5.93,0,0,0,505,82.1l51-28.66a18.29,18.29,0,0,0,1.65-1.11l0,0c.26-.2.54-.4.85-.61l-.81-.57,0,0a13.48,13.48,0,0,0-1.27-.86l-15.28-8.63h0C529.19,34.89,516.91,28,504.86,21.08a4.51,4.51,0,0,0-2.35-.66Zm808.12-.06a5,5,0,0,0-2.85.88c-12.71,7.22-25.67,14.49-38.21,21.52l-.17.1-11.61,6.51c-.56.31-1.11.63-1.69,1h0l-1.8,1c.49.32.9.62,1.28.88h0c.59.43,1.2.83,1.82,1.2l12.55,7.09.41.23.06,0c12.1,6.84,24.61,13.9,36.86,20.92a5.64,5.64,0,0,0,6.41,0c11.64-6.63,23.53-13.31,35-19.77l.15-.08,14.78-8.31c.6-.34,1.17-.71,1.83-1.15h0l0,0,1.2-.78c-.43-.28-.81-.54-1.17-.8h0c-.64-.44-1.18-.82-1.77-1.15l-12-6.77-1.45-.82c-12-6.79-24.48-13.82-36.77-20.85a5,5,0,0,0-2.9-.92ZM102.25,49.93A20,20,0,0,0,100,51.71l1,.56.08,0c1,.59,1.87,1.1,2.74,1.59l12.43,7,.4.23c11.85,6.68,24.1,13.6,36.1,20.53a6.82,6.82,0,0,0,3.39,1,7.37,7.37,0,0,0,3.67-1.17c10-5.66,20.13-11.39,30.21-17v-.2l20.3-11.43A10.28,10.28,0,0,0,212,51.4c-.42-.25-.8-.49-1.2-.75-.68-.43-1.27-.8-1.88-1.14C201.4,45.26,195.58,42,190,38.83v-.06c-10.44-5.88-20.87-11.8-31-17.6a5.06,5.06,0,0,0-5.76.06C142,27.58,130.63,34,119.6,40.18l-.13.08-17.22,9.68Zm977.39-29.65a5,5,0,0,0-2.93.94c-11.38,6.45-22.91,12.93-34.06,19.19l-16.93,9.51h0a19.23,19.23,0,0,0-2.24,1.78l1.23.72,2.55,1.48L1039.76,61l0,0c11.93,6.73,24.27,13.69,36.4,20.7a6.72,6.72,0,0,0,3.39,1,7.4,7.4,0,0,0,3.67-1.17c10.55-6,21.32-12,31.73-17.88l12.8-7.18c1.57-.89,3.14-1.8,4.81-2.77l3.41-2-1.34-.9h0c-.63-.42-1.12-.76-1.64-1.05l-14-7.94-.5-.28c-11.78-6.66-24-13.54-36-20.43a5.09,5.09,0,0,0-2.82-.87ZM564.17,49.93a18.83,18.83,0,0,0-2.23,1.77l1,.56.29.17,0,0,2.48,1.44L578.34,61c11.92,6.73,24.24,13.68,36.34,20.66a6.68,6.68,0,0,0,3.3,1,7.71,7.71,0,0,0,3.38-1.16c10.87-6.2,21.92-12.39,32.6-18.37l.6-.34,14.53-8.18,3.36-1.94a13.5,13.5,0,0,0,1.31-1.2l-.7-.47-.17-.12c-.65-.44-1.22-.83-1.77-1.14-4.53-2.57-9.15-5.17-13.61-7.69l-1.1-.63h0c-11.76-6.64-23.92-13.5-35.84-20.32a5.59,5.59,0,0,0-2.7-.83,6.32,6.32,0,0,0-2.69.9c-11.38,6.46-22.89,12.92-34,19.17l-17,9.54ZM849,20.4a5.71,5.71,0,0,0-2.75.84c-12.79,7.27-25.84,14.58-38.46,21.66l-.24.14-11.29,6.33L794,50.65l-.87.5-.38.26,1.18.81.07.05a21.26,21.26,0,0,0,1.84,1.21l12.5,7.06.3.17c12.17,6.87,24.75,14,37.07,21a8.86,8.86,0,0,0,1.63.74,5,5,0,0,0,2.14.13h.14a5.25,5.25,0,0,0,.84-.23,8.77,8.77,0,0,0,1.29-.58c11.86-6.76,24-13.56,35.68-20.14l.13-.07,14.15-8c.6-.33,1.17-.71,1.83-1.15h0l.06,0,1.17-.77c-.43-.28-.8-.54-1.21-.82-.63-.44-1.17-.82-1.75-1.15l-13.42-7.58L888.1,42c-12-6.74-24.32-13.72-36.51-20.7A5.93,5.93,0,0,0,849,20.4Zm-461.83,0a4.58,4.58,0,0,0-1.64.3q-.4.16-.78.36L364,32.73l-9.82,5.52L333.76,49.7c-.55.31-1.08.68-1.7,1.11l-1,.67,1.08.74a18.48,18.48,0,0,0,1.89,1.22l14.17,8,.46.26c11.54,6.52,23.48,13.26,35.25,20a6.55,6.55,0,0,0,2.91,1,6.35,6.35,0,0,0,3.11-.94c12.28-7,24.8-14,36.91-20.82l.2-.11.12-.07,12.42-7,1.54-.89,1.95-1.13-1-.71L442,51a18.3,18.3,0,0,0-1.72-1.14c-16.86-9.48-34-19.17-50.86-28.8a6.89,6.89,0,0,0-1-.44,4.27,4.27,0,0,0-1.28-.19ZM1,662.74H1l-.59-.34L0,662.16v-1.77L1,661v1.79ZM0,640.9H0v-1.44l1-.59v1.47l-.5.28-.5.28Z"/></g></g></g></svg>