<svg xmlns="http://www.w3.org/2000/svg" xmlns:xlink="http://www.w3.org/1999/xlink" width="300" height="300" viewBox="0 0 300 300">
  <defs>
    <clipPath id="clip-path">
      <circle id="Ellipse_1" data-name="Ellipse 1" cx="150" cy="150" r="150" fill="none"/>
    </clipPath>
  </defs>
  <g id="Group_2" data-name="Group 2" clip-path="url(#clip-path)">
    <g id="Group_1" data-name="Group 1">
      <rect id="_51" data-name="51" width="523.256" height="300" transform="translate(-111.628)" fill="#239f40"/>
      <rect id="_50" data-name="50" width="523.256" height="100" transform="translate(-111.628 100)" fill="#fff"/>
      <rect id="_49" data-name="49" width="523.256" height="100" transform="translate(-111.628 200)" fill="#da0000"/>
      <path id="_48" data-name="48" d="M129.07,84.833h27.907M129.07,94.167V89.5h9.3v4.667h9.3V89.5h-4.651m13.954,4.667h-4.651V89.5h9.3V84.833m0,4.667v4.667h9.3V84.833m-4.651,0v9.334m-32.558,0h0" fill="none" stroke="#fff" stroke-linecap="square" stroke-width="2.995"/>
      <path id="_47" data-name="47" d="M129.07,99.333h18.6m4.652,0h18.6" fill="none" stroke="#fff" stroke-linecap="square" stroke-width="2.995"/>
      <path id="_46" data-name="46" d="M129.07,205.833h27.907m-27.907,9.334V210.5h9.3v4.667h9.3V210.5h-4.651m13.954,4.667h-4.651V210.5h9.3v-4.667m0,4.667v4.667h9.3v-9.334m-4.651,0v9.334m-32.558,0h0" fill="none" stroke="#fff" stroke-linecap="square" stroke-width="2.995"/>
      <path id="_45" data-name="45" d="M129.07,200.667h18.6m4.652,0h18.6" fill="none" stroke="#fff" stroke-linecap="square" stroke-width="2.995"/>
      <path id="_44" data-name="44" d="M175.581,84.833h27.907m-27.907,9.334V89.5h9.3v4.667h9.3V89.5h-4.651m13.953,4.667h-4.651V89.5h9.3V84.833m0,4.667v4.667h9.3V84.833m-4.651,0v9.334m-32.558,0h0" fill="none" stroke="#fff" stroke-linecap="square" stroke-width="2.995"/>
      <path id="_43" data-name="43" d="M175.581,99.333h18.605m4.651,0h18.6" fill="none" stroke="#fff" stroke-linecap="square" stroke-width="2.995"/>
      <path id="_42" data-name="42" d="M175.581,205.833h27.907m-27.907,9.334V210.5h9.3v4.667h9.3V210.5h-4.651m13.953,4.667h-4.651V210.5h9.3v-4.667m0,4.667v4.667h9.3v-9.334m-4.651,0v9.334m-32.558,0h0" fill="none" stroke="#fff" stroke-linecap="square" stroke-width="2.995"/>
      <path id="_41" data-name="41" d="M175.581,200.667h18.605m4.651,0h18.6" fill="none" stroke="#fff" stroke-linecap="square" stroke-width="2.995"/>
      <path id="_40" data-name="40" d="M36.047,84.833H63.953M36.047,94.167V89.5h9.3v4.667h9.3V89.5H50m13.953,4.667H59.3V89.5h9.3V84.833m0,4.667v4.667h9.3V84.833m-4.651,0v9.334m-32.558,0h0" fill="none" stroke="#fff" stroke-linecap="square" stroke-width="2.995"/>
      <path id="_39" data-name="39" d="M36.047,99.333h18.6m4.651,0h18.6" fill="none" stroke="#fff" stroke-linecap="square" stroke-width="2.995"/>
      <path id="_38" data-name="38" d="M36.047,205.833H63.953m-27.906,9.334V210.5h9.3v4.667h9.3V210.5H50m13.953,4.667H59.3V210.5h9.3v-4.667m0,4.667v4.667h9.3v-9.334m-4.651,0v9.334m-32.558,0h0" fill="none" stroke="#fff" stroke-linecap="square" stroke-width="2.995"/>
      <path id="_37" data-name="37" d="M36.047,200.667h18.6m4.651,0h18.6" fill="none" stroke="#fff" stroke-linecap="square" stroke-width="2.995"/>
      <path id="_36" data-name="36" d="M82.558,84.833h27.907M82.558,94.167V89.5h9.3v4.667h9.3V89.5H96.512m13.953,4.667h-4.651V89.5h9.3V84.833m0,4.667v4.667h9.3V84.833m-4.652,0v9.334m-32.558,0h0" fill="none" stroke="#fff" stroke-linecap="square" stroke-width="2.995"/>
      <path id="_35" data-name="35" d="M82.558,99.333h18.605m4.651,0h18.6" fill="none" stroke="#fff" stroke-linecap="square" stroke-width="2.995"/>
      <path id="_34" data-name="34" d="M82.558,205.833h27.907m-27.907,9.334V210.5h9.3v4.667h9.3V210.5H96.512m13.953,4.667h-4.651V210.5h9.3v-4.667m0,4.667v4.667h9.3v-9.334m-4.652,0v9.334m-32.558,0h0" fill="none" stroke="#fff" stroke-linecap="square" stroke-width="2.995"/>
      <path id="_33" data-name="33" d="M82.558,200.667h18.605m4.651,0h18.6" fill="none" stroke="#fff" stroke-linecap="square" stroke-width="2.995"/>
      <path id="_32" data-name="32" d="M315.116,84.833h27.907m-27.907,9.334V89.5h9.3v4.667h9.3V89.5H329.07m13.953,4.667h-4.651V89.5h9.3V84.833m0,4.667v4.667h9.3V84.833m-4.651,0v9.334m-32.559,0h0" fill="none" stroke="#fff" stroke-linecap="square" stroke-width="2.995"/>
      <path id="_31" data-name="31" d="M315.116,99.333h18.605m4.651,0h18.6" fill="none" stroke="#fff" stroke-linecap="square" stroke-width="2.995"/>
      <path id="_30" data-name="30" d="M315.116,205.833h27.907m-27.907,9.334V210.5h9.3v4.667h9.3V210.5H329.07m13.953,4.667h-4.651V210.5h9.3v-4.667m0,4.667v4.667h9.3v-9.334m-4.651,0v9.334m-32.559,0h0" fill="none" stroke="#fff" stroke-linecap="square" stroke-width="2.995"/>
      <path id="_29" data-name="29" d="M315.116,200.667h18.605m4.651,0h18.6" fill="none" stroke="#fff" stroke-linecap="square" stroke-width="2.995"/>
      <path id="_28" data-name="28" d="M361.628,84.833h27.907m-27.907,9.334V89.5h9.3v4.667h9.3V89.5h-4.652m13.954,4.667h-4.651V89.5h9.3V84.833m0,4.667v4.667h9.3V84.833m-4.651,0v9.334m-32.558,0h0" fill="none" stroke="#fff" stroke-linecap="square" stroke-width="2.995"/>
      <path id="_27" data-name="27" d="M361.628,99.333h18.605m4.651,0h18.6" fill="none" stroke="#fff" stroke-linecap="square" stroke-width="2.995"/>
      <path id="_26" data-name="26" d="M361.628,205.833h27.907m-27.907,9.334V210.5h9.3v4.667h9.3V210.5h-4.652m13.954,4.667h-4.651V210.5h9.3v-4.667m0,4.667v4.667h9.3v-9.334m-4.651,0v9.334m-32.558,0h0" fill="none" stroke="#fff" stroke-linecap="square" stroke-width="2.995"/>
      <path id="_25" data-name="25" d="M361.628,200.667h18.605m4.651,0h18.6" fill="none" stroke="#fff" stroke-linecap="square" stroke-width="2.995"/>
      <path id="_24" data-name="24" d="M222.093,84.833H250m-27.907,9.334V89.5h9.3v4.667h9.3V89.5h-4.651M250,94.167h-4.651V89.5h9.3V84.833m0,4.667v4.667h9.3V84.833m-4.651,0v9.334m-32.558,0h0" fill="none" stroke="#fff" stroke-linecap="square" stroke-width="2.995"/>
      <path id="_23" data-name="23" d="M222.093,99.333h18.6m4.651,0h18.6" fill="none" stroke="#fff" stroke-linecap="square" stroke-width="2.995"/>
      <path id="_22" data-name="22" d="M222.093,205.833H250m-27.907,9.334V210.5h9.3v4.667h9.3V210.5h-4.651M250,215.167h-4.651V210.5h9.3v-4.667m0,4.667v4.667h9.3v-9.334m-4.651,0v9.334m-32.558,0h0" fill="none" stroke="#fff" stroke-linecap="square" stroke-width="2.995"/>
      <path id="_21" data-name="21" d="M222.093,200.667h18.6m4.651,0h18.6" fill="none" stroke="#fff" stroke-linecap="square" stroke-width="2.995"/>
      <path id="_20" data-name="20" d="M268.605,84.833h27.907m-27.907,9.334V89.5h9.3v4.667h9.3V89.5h-4.651m13.954,4.667H291.86V89.5h9.3V84.833m0,4.667v4.667h9.3V84.833m-4.651,0v9.334m-32.558,0h0" fill="none" stroke="#fff" stroke-linecap="square" stroke-width="2.995"/>
      <path id="_19" data-name="19" d="M268.605,99.333h18.6m4.651,0h18.605" fill="none" stroke="#fff" stroke-linecap="square" stroke-width="2.995"/>
      <path id="_18" data-name="18" d="M268.605,205.833h27.907m-27.907,9.334V210.5h9.3v4.667h9.3V210.5h-4.651m13.954,4.667H291.86V210.5h9.3v-4.667m0,4.667v4.667h9.3v-9.334m-4.651,0v9.334m-32.558,0h0" fill="none" stroke="#fff" stroke-linecap="square" stroke-width="2.995"/>
      <path id="_17" data-name="17" d="M268.605,200.667h18.6m4.651,0h18.605" fill="none" stroke="#fff" stroke-linecap="square" stroke-width="2.995"/>
      <path id="_16" data-name="16" d="M-10.465,84.833H17.442m-27.907,9.334V89.5h9.3v4.667h9.3V89.5H3.488m13.954,4.667H12.791V89.5h9.3V84.833m0,4.667v4.667h9.3V84.833m-4.651,0v9.334m-32.558,0h0" fill="none" stroke="#fff" stroke-linecap="square" stroke-width="2.995"/>
      <path id="_15" data-name="15" d="M-10.465,99.333H8.14m4.651,0H31.4" fill="none" stroke="#fff" stroke-linecap="square" stroke-width="2.995"/>
      <path id="_14" data-name="14" d="M-10.465,205.833H17.442m-27.907,9.334V210.5h9.3v4.667h9.3V210.5H3.488m13.954,4.667H12.791V210.5h9.3v-4.667m0,4.667v4.667h9.3v-9.334m-4.651,0v9.334m-32.558,0h0" fill="none" stroke="#fff" stroke-linecap="square" stroke-width="2.995"/>
      <path id="_13" data-name="13" d="M-10.465,200.667H8.14m4.651,0H31.4" fill="none" stroke="#fff" stroke-linecap="square" stroke-width="2.995"/>
      <path id="_12" data-name="12" d="M-103.488,84.833h27.907m-27.907,9.334V89.5h9.3v4.667h9.3V89.5h-4.651m13.954,4.667h-4.652V89.5h9.3V84.833m0,4.667v4.667h9.3V84.833m-4.651,0v9.334m-32.558,0h0" fill="none" stroke="#fff" stroke-linecap="square" stroke-width="2.995"/>
      <path id="_11" data-name="11" d="M-103.488,99.333h18.6m4.651,0h18.605" fill="none" stroke="#fff" stroke-linecap="square" stroke-width="2.995"/>
      <path id="_10" data-name="10" d="M-103.488,205.833h27.907m-27.907,9.334V210.5h9.3v4.667h9.3V210.5h-4.651m13.954,4.667h-4.652V210.5h9.3v-4.667m0,4.667v4.667h9.3v-9.334m-4.651,0v9.334m-32.558,0h0" fill="none" stroke="#fff" stroke-linecap="square" stroke-width="2.995"/>
      <path id="_9" data-name="9" d="M-103.488,200.667h18.6m4.651,0h18.605" fill="none" stroke="#fff" stroke-linecap="square" stroke-width="2.995"/>
      <path id="_8" data-name="8" d="M-56.977,84.833H-29.07m-27.907,9.334V89.5h9.3v4.667h9.3V89.5h-4.651m13.953,4.667h-4.651V89.5h9.3V84.833m0,4.667v4.667h9.3V84.833m-4.651,0v9.334m-32.559,0h0" fill="none" stroke="#fff" stroke-linecap="square" stroke-width="2.995"/>
      <path id="_7" data-name="7" d="M-56.977,99.333h18.6m4.651,0h18.605" fill="none" stroke="#fff" stroke-linecap="square" stroke-width="2.995"/>
      <path id="_6" data-name="6" d="M-56.977,205.833H-29.07m-27.907,9.334V210.5h9.3v4.667h9.3V210.5h-4.651m13.953,4.667h-4.651V210.5h9.3v-4.667m0,4.667v4.667h9.3v-9.334m-4.651,0v9.334m-32.559,0h0" fill="none" stroke="#fff" stroke-linecap="square" stroke-width="2.995"/>
      <path id="_5" data-name="5" d="M-56.977,200.667h18.6m4.651,0h18.605" fill="none" stroke="#fff" stroke-linecap="square" stroke-width="2.995"/>
      <path id="_4" data-name="4" d="M165.226,123.193s27.043,21.22,7.165,51.715C191.113,163.429,192.731,131.86,165.226,123.193Z" fill="#da0000"/>
      <path id="_3" data-name="3" d="M150,120.178c-4.3,4.87-11.7.029-9.158-5.276,4.449,8,9.158,1.537,9.158,1.537s4.71,6.464,9.159-1.537c2.543,5.305-4.853,10.146-9.159,5.276Z" fill="#da0000"/>
      <path id="_2" data-name="2" d="M150,186.273l-3.091-4.058s-7.281,2.435-16.873-.928c7.859,0,12.25-1.392,13.868-2.2,0,0-17.8-9.624-17.451-29.22C127.493,130.035,138.01,124,138.01,124s-18.722,27.365,8.783,50.237l-1.214-28.293V125.164c1.561-.377,4.421-3.682,4.421-3.682s2.86,3.305,4.42,3.682v20.785l-1.213,28.293c27.5-22.872,8.782-50.238,8.782-50.238s10.517,6.029,11.557,25.858c.347,19.6-17.451,29.22-17.451,29.22,1.617.812,6.009,2.2,13.868,2.2-9.593,3.363-16.873.928-16.873.928L150,186.271Z" fill="#da0000"/>
      <path id="_1" data-name="1" d="M134.775,123.193s-27.043,21.22-7.166,51.715C108.887,163.429,107.268,131.86,134.775,123.193Z" fill="#da0000"/>
    </g>
  </g>
</svg>
