<svg xmlns="http://www.w3.org/2000/svg" id="prefix__search" width="24.474" height="24.474" viewBox="0 0 24.474 24.474">
    <path id="prefix__Path_12250" d="M5.424 146.449l-.852 3.18-3.114.066a12.258 12.258 0 0 1-.09-11.427l2.772.508 1.214 2.755a7.3 7.3 0 0 0 .069 4.917z" data-name="Path 12250" transform="translate(0 -131.659)" style="fill:#fbbb00"/>
    <path id="prefix__Path_12251" d="M273.382 208.176A12.233 12.233 0 0 1 269.02 220l-3.492-.178-.494-3.085a7.293 7.293 0 0 0 3.138-3.724h-6.543v-4.841h11.754z" data-name="Path 12251" transform="translate(-249.122 -198.225)" style="fill:#518ef8"/>
    <path id="prefix__Path_12252" d="M48.948 316.4a12.241 12.241 0 0 1-18.44-3.744l3.966-3.246a7.278 7.278 0 0 0 10.488 3.726z" data-name="Path 12252" transform="translate(-29.051 -294.619)" style="fill:#28b446"/>
    <path id="prefix__Path_12253" d="M47.3 2.817l-3.961 3.246a7.277 7.277 0 0 0-10.728 3.81l-3.986-3.264A12.24 12.24 0 0 1 47.3 2.817z" data-name="Path 12253" transform="translate(-27.256)" style="fill:#f14336"/>
</svg>
