<svg id="salesforce-2" xmlns="http://www.w3.org/2000/svg" width="116.028" height="81.213" viewBox="0 0 116.028 81.213">
  <path id="Path_12264" data-name="Path 12264" d="M48.784,9.357A20.332,20.332,0,0,1,63.5,3.04,20.543,20.543,0,0,1,81.4,13.651,24.737,24.737,0,0,1,91.514,11.5a25.234,25.234,0,0,1,0,50.465,24.825,24.825,0,0,1-4.927-.491A18.285,18.285,0,0,1,62.628,69a20.862,20.862,0,0,1-38.782-.944,19.138,19.138,0,0,1-3.98.415,19.608,19.608,0,0,1-9.682-36.517,22.533,22.533,0,0,1,38.6-22.6" transform="translate(-0.5 -0.5)" fill="#00a1e0"/>
  <path id="Path_12265" data-name="Path 12265" d="M145,291.038c-.073.19.026.23.05.263a6.78,6.78,0,0,0,.663.4,7.065,7.065,0,0,0,3.469.811c2.38,0,3.858-1.266,3.858-3.3v-.04c0-1.884-1.668-2.569-3.233-3.063l-.2-.066c-1.18-.383-2.2-.714-2.2-1.491v-.041c0-.664.6-1.154,1.517-1.154a6.862,6.862,0,0,1,3.025.773s.23.149.314-.074c.046-.119.443-1.187.484-1.3a.222.222,0,0,0-.116-.268,6.749,6.749,0,0,0-3.41-.916l-.238,0c-2.178,0-3.7,1.316-3.7,3.2v.04c0,1.988,1.678,2.633,3.249,3.082l.253.078c1.145.352,2.132.654,2.132,1.461v.04c0,.737-.641,1.286-1.676,1.286a5.627,5.627,0,0,1-3.066-.883c-.167-.1-.264-.169-.393-.246a.189.189,0,0,0-.312.107Zm34.843,0c-.073.19.026.23.05.263a6.791,6.791,0,0,0,.663.4,7.066,7.066,0,0,0,3.469.811c2.38,0,3.858-1.266,3.858-3.3v-.04c0-1.884-1.668-2.569-3.233-3.063l-.2-.066c-1.18-.383-2.2-.714-2.2-1.491v-.041c0-.664.6-1.154,1.517-1.154a6.863,6.863,0,0,1,3.025.773s.23.149.314-.074c.046-.119.443-1.187.484-1.3a.222.222,0,0,0-.116-.268,6.749,6.749,0,0,0-3.41-.916l-.238,0c-2.178,0-3.7,1.316-3.7,3.2v.04c0,1.988,1.678,2.633,3.249,3.082l.253.078c1.145.352,2.134.654,2.134,1.461v.04c0,.737-.643,1.286-1.678,1.286a5.627,5.627,0,0,1-3.066-.883c-.167-.1-.266-.165-.392-.246a.2.2,0,0,0-.314.107Zm23.786-3.992a4.9,4.9,0,0,1-.638,2.7,2.135,2.135,0,0,1-1.934.944,2.109,2.109,0,0,1-1.926-.944,6.1,6.1,0,0,1,0-5.392,2.119,2.119,0,0,1,1.926-.934,2.147,2.147,0,0,1,1.935.934,4.862,4.862,0,0,1,.636,2.691m1.987-2.135a4.782,4.782,0,0,0-.9-1.726,4.37,4.37,0,0,0-1.526-1.16,5.532,5.532,0,0,0-4.259,0,4.393,4.393,0,0,0-1.527,1.16,4.861,4.861,0,0,0-.9,1.726,7.982,7.982,0,0,0,0,4.271,4.809,4.809,0,0,0,.906,1.726,4.263,4.263,0,0,0,1.526,1.15,5.653,5.653,0,0,0,4.259,0,4.266,4.266,0,0,0,1.526-1.15,4.784,4.784,0,0,0,.9-1.726,7.938,7.938,0,0,0,0-4.271m16.314,5.472a.188.188,0,0,0-.253-.121,4.554,4.554,0,0,1-.924.264,7.2,7.2,0,0,1-1.089.078,3.026,3.026,0,0,1-2.272-.851,3.794,3.794,0,0,1-.853-2.716,4.21,4.21,0,0,1,.762-2.616,2.594,2.594,0,0,1,2.2-.97,6.6,6.6,0,0,1,2.1.3s.157.068.231-.137c.174-.483.3-.828.488-1.359a.178.178,0,0,0-.122-.233,7.751,7.751,0,0,0-1.326-.334,9.95,9.95,0,0,0-1.491-.1,5.4,5.4,0,0,0-2.215.426,4.584,4.584,0,0,0-1.6,1.159,4.928,4.928,0,0,0-.967,1.725,6.871,6.871,0,0,0-.324,2.139,5.719,5.719,0,0,0,1.322,3.955,5.027,5.027,0,0,0,3.922,1.476,8.083,8.083,0,0,0,2.813-.5.181.181,0,0,0,.081-.236Zm3.476-4.44a3.906,3.906,0,0,1,.544-1.587,2.141,2.141,0,0,1,1.922-.975,2.087,2.087,0,0,1,1.884.975,3.324,3.324,0,0,1,.446,1.587h-4.8Zm6.689-1.407a4.176,4.176,0,0,0-.861-1.574,3.953,3.953,0,0,0-1.276-.974,4.919,4.919,0,0,0-1.927-.39,5.248,5.248,0,0,0-2.22.431,4.418,4.418,0,0,0-1.549,1.182,4.844,4.844,0,0,0-.911,1.745,7.55,7.55,0,0,0-.3,2.147,7.193,7.193,0,0,0,.306,2.147,4.318,4.318,0,0,0,2.666,2.829,6.769,6.769,0,0,0,2.441.4,7.026,7.026,0,0,0,3.387-.673c.074-.041.146-.114.056-.322l-.44-1.232a.193.193,0,0,0-.253-.116,6.491,6.491,0,0,1-2.76.5,2.752,2.752,0,0,1-3.084-3.028l6.725.007a.2.2,0,0,0,.2-.175,7.211,7.211,0,0,0-.2-2.9m-60.549,1.407a3.93,3.93,0,0,1,.544-1.587,2.14,2.14,0,0,1,1.922-.975,2.091,2.091,0,0,1,1.886.975,3.344,3.344,0,0,1,.445,1.587Zm6.687-1.407a4.175,4.175,0,0,0-.859-1.574,3.954,3.954,0,0,0-1.276-.974,4.918,4.918,0,0,0-1.927-.39,5.253,5.253,0,0,0-2.22.431,4.417,4.417,0,0,0-1.549,1.182,4.844,4.844,0,0,0-.911,1.745,7.609,7.609,0,0,0-.3,2.147,7.189,7.189,0,0,0,.306,2.147,4.318,4.318,0,0,0,2.666,2.829,6.769,6.769,0,0,0,2.441.4,7.027,7.027,0,0,0,3.387-.673c.074-.041.145-.114.056-.322l-.438-1.232a.2.2,0,0,0-.254-.116,6.488,6.488,0,0,1-2.762.5,2.752,2.752,0,0,1-3.083-3.028l6.725.007a.2.2,0,0,0,.195-.175,7.2,7.2,0,0,0-.2-2.9m-21.224,5.81a1.361,1.361,0,0,1-.388-.4,1.625,1.625,0,0,1-.2-.874,1.472,1.472,0,0,1,.6-1.3,3.015,3.015,0,0,1,1.95-.486,13.8,13.8,0,0,1,1.825.155V290.5h0a13.665,13.665,0,0,1-1.816.241,3.023,3.023,0,0,1-1.972-.393m2.676-4.725c-.273-.02-.626-.031-1.05-.031a6.377,6.377,0,0,0-1.656.213,4.322,4.322,0,0,0-1.4.651,3.138,3.138,0,0,0-1.334,2.659,3.514,3.514,0,0,0,.307,1.536,2.77,2.77,0,0,0,.878,1.051,3.676,3.676,0,0,0,1.37.593,8.031,8.031,0,0,0,1.78.182,12.126,12.126,0,0,0,2.043-.17c.659-.112,1.469-.276,1.694-.327q.236-.057.471-.121a.211.211,0,0,0,.154-.22l0-6.15a3.764,3.764,0,0,0-1.069-2.969,4.575,4.575,0,0,0-3.089-.931,11.077,11.077,0,0,0-1.8.167,6.5,6.5,0,0,0-2.074.757.21.21,0,0,0-.059.268l.476,1.279a.17.17,0,0,0,.22.109.872.872,0,0,0,.111-.055,6.826,6.826,0,0,1,2.93-.683,2.707,2.707,0,0,1,1.663.435c.367.281.554.706.554,1.6v.284c-.579-.083-1.109-.13-1.109-.13m54.243-3.465a.181.181,0,0,0-.1-.241,5.835,5.835,0,0,0-1.127-.193,3.351,3.351,0,0,0-1.734.279,3.056,3.056,0,0,0-1.137.838v-.818a.2.2,0,0,0-.193-.2h-1.724a.2.2,0,0,0-.193.2V292.05a.206.206,0,0,0,.2.205h1.767a.2.2,0,0,0,.2-.205v-5.011a5.87,5.87,0,0,1,.223-1.765,2.54,2.54,0,0,1,.588-.99,2.064,2.064,0,0,1,.831-.5,3.239,3.239,0,0,1,.9-.127,3.776,3.776,0,0,1,.739.091c.129.015.2-.064.244-.182.116-.307.443-1.228.506-1.412" transform="translate(-128.191 -245.714)" fill="#fff"/>
  <path id="Path_12266" data-name="Path 12266" d="M350.736,244.867a5.762,5.762,0,0,0-.664-.159,5.27,5.27,0,0,0-.914-.069,3.852,3.852,0,0,0-2.848,1.021,5.557,5.557,0,0,0-1.352,3.051l-.083.454h-1.527a.227.227,0,0,0-.225.2l-.249,1.4c-.018.132.04.216.218.216h1.486l-1.507,8.416a10.415,10.415,0,0,1-.4,1.658,3.387,3.387,0,0,1-.469.957,1.251,1.251,0,0,1-.615.474,2.5,2.5,0,0,1-.792.114,2.977,2.977,0,0,1-.539-.06,1.59,1.59,0,0,1-.364-.117.186.186,0,0,0-.243.108c-.055.144-.451,1.233-.5,1.367a.2.2,0,0,0,.1.269,5.5,5.5,0,0,0,.615.18,4.076,4.076,0,0,0,.985.093,4.931,4.931,0,0,0,1.651-.256,3.119,3.119,0,0,0,1.243-.866,4.44,4.44,0,0,0,.873-1.506,12.777,12.777,0,0,0,.592-2.258l1.516-8.573h2.215a.226.226,0,0,0,.225-.2l.251-1.4c.017-.134-.04-.216-.22-.216h-2.15a9.331,9.331,0,0,1,.355-1.517,1.984,1.984,0,0,1,.471-.717,1.412,1.412,0,0,1,.564-.35,2.338,2.338,0,0,1,.722-.1,2.826,2.826,0,0,1,.552.054c.208.045.289.068.344.084.22.066.249,0,.293-.1l.514-1.411a.18.18,0,0,0-.124-.235m-30.044,14.545a.2.2,0,0,1-.193.2h-1.783a.194.194,0,0,1-.192-.2V245.059a.194.194,0,0,1,.192-.2H320.5a.2.2,0,0,1,.193.2Z" transform="translate(-281.975 -213.931)" fill="#fff"/>
</svg>
